{
	"patcher" : 	{
		"fileversion" : 1,
		"appversion" : 		{
			"major" : 7,
			"minor" : 3,
			"revision" : 4,
			"architecture" : "x64",
			"modernui" : 1
		}
,
		"rect" : [ 42.0, 144.0, 579.0, 451.0 ],
		"bgcolor" : [ 0.32549, 0.345098, 0.372549, 1.0 ],
		"editing_bgcolor" : [ 0.239216, 0.254902, 0.278431, 1.0 ],
		"bglocked" : 0,
		"openinpresentation" : 0,
		"default_fontsize" : 10.0,
		"default_fontface" : 1,
		"default_fontname" : "Arial",
		"gridonopen" : 2,
		"gridsize" : [ 10.0, 10.0 ],
		"gridsnaponopen" : 2,
		"objectsnaponopen" : 1,
		"statusbarvisible" : 2,
		"toolbarvisible" : 1,
		"lefttoolbarpinned" : 0,
		"toptoolbarpinned" : 0,
		"righttoolbarpinned" : 0,
		"bottomtoolbarpinned" : 0,
		"toolbars_unpinned_last_save" : 0,
		"tallnewobj" : 0,
		"boxanimatetime" : 200,
		"enablehscroll" : 1,
		"enablevscroll" : 1,
		"devicewidth" : 0.0,
		"description" : "",
		"digest" : "",
		"tags" : "",
		"style" : "",
		"subpatcher_template" : "To the Sun",
		"boxes" : [ 			{
				"box" : 				{
					"id" : "obj-18",
					"maxclass" : "newobj",
					"numinlets" : 1,
					"numoutlets" : 2,
					"outlettype" : [ "bang", "zlclear" ],
					"patching_rect" : [ 31.0, 310.0, 74.0, 20.0 ],
					"style" : "",
					"text" : "t bang zlclear"
				}

			}
, 			{
				"box" : 				{
					"comment" : "",
					"id" : "obj-17",
					"index" : 2,
					"maxclass" : "outlet",
					"numinlets" : 1,
					"numoutlets" : 0,
					"patching_rect" : [ 260.0, 330.0, 30.0, 30.0 ],
					"style" : ""
				}

			}
, 			{
				"box" : 				{
					"id" : "obj-16",
					"maxclass" : "newobj",
					"numinlets" : 2,
					"numoutlets" : 2,
					"outlettype" : [ "bang", "" ],
					"patching_rect" : [ 31.0, 290.0, 33.0, 20.0 ],
					"style" : "",
					"text" : "sel 1"
				}

			}
, 			{
				"box" : 				{
					"id" : "obj-15",
					"maxclass" : "newobj",
					"numinlets" : 2,
					"numoutlets" : 2,
					"outlettype" : [ "", "" ],
					"patching_rect" : [ 31.0, 240.0, 40.0, 20.0 ],
					"style" : "",
					"text" : "zl sort"
				}

			}
, 			{
				"box" : 				{
					"id" : "obj-14",
					"maxclass" : "newobj",
					"numinlets" : 2,
					"numoutlets" : 2,
					"outlettype" : [ "", "" ],
					"patching_rect" : [ 75.0, 240.0, 40.0, 20.0 ],
					"style" : "",
					"text" : "zl sort"
				}

			}
, 			{
				"box" : 				{
					"id" : "obj-7",
					"maxclass" : "newobj",
					"numinlets" : 2,
					"numoutlets" : 2,
					"outlettype" : [ "", "" ],
					"patching_rect" : [ 31.0, 270.0, 63.0, 20.0 ],
					"style" : "",
					"text" : "zl compare"
				}

			}
, 			{
				"box" : 				{
					"id" : "obj-4",
					"maxclass" : "newobj",
					"numinlets" : 2,
					"numoutlets" : 2,
					"outlettype" : [ "", "" ],
					"patching_rect" : [ 90.0, 90.0, 92.0, 20.0 ],
					"style" : "",
					"text" : "routepass zlclear"
				}

			}
, 			{
				"box" : 				{
					"comment" : "",
					"id" : "obj-13",
					"index" : 1,
					"maxclass" : "outlet",
					"numinlets" : 1,
					"numoutlets" : 0,
					"patching_rect" : [ 190.0, 300.0, 30.0, 30.0 ],
					"style" : ""
				}

			}
, 			{
				"box" : 				{
					"id" : "obj-12",
					"maxclass" : "newobj",
					"numinlets" : 2,
					"numoutlets" : 2,
					"outlettype" : [ "", "" ],
					"patching_rect" : [ 120.0, 240.0, 43.0, 20.0 ],
					"style" : "",
					"text" : "zl filter"
				}

			}
, 			{
				"box" : 				{
					"id" : "obj-11",
					"maxclass" : "newobj",
					"numinlets" : 2,
					"numoutlets" : 2,
					"outlettype" : [ "", "" ],
					"patching_rect" : [ 120.0, 210.0, 37.0, 20.0 ],
					"style" : "",
					"text" : "zl reg"
				}

			}
, 			{
				"box" : 				{
					"id" : "obj-10",
					"maxclass" : "newobj",
					"numinlets" : 1,
					"numoutlets" : 2,
					"outlettype" : [ "bang", "" ],
					"patching_rect" : [ 120.0, 180.0, 46.0, 20.0 ],
					"style" : "",
					"text" : "t bang l"
				}

			}
, 			{
				"box" : 				{
					"id" : "obj-9",
					"maxclass" : "newobj",
					"numinlets" : 2,
					"numoutlets" : 2,
					"outlettype" : [ "", "" ],
					"patching_rect" : [ 190.0, 270.0, 37.0, 20.0 ],
					"style" : "",
					"text" : "zl reg"
				}

			}
, 			{
				"box" : 				{
					"id" : "obj-8",
					"maxclass" : "newobj",
					"numinlets" : 2,
					"numoutlets" : 2,
					"outlettype" : [ "", "" ],
					"patching_rect" : [ 190.0, 210.0, 68.0, 20.0 ],
					"style" : "",
					"text" : "zl join"
				}

			}
, 			{
				"box" : 				{
					"id" : "obj-6",
					"maxclass" : "newobj",
					"numinlets" : 1,
					"numoutlets" : 2,
					"outlettype" : [ "", "" ],
					"patching_rect" : [ 120.0, 120.0, 72.0, 20.0 ],
					"style" : "",
					"text" : "t l l"
				}

			}
, 			{
				"box" : 				{
					"id" : "obj-5",
					"maxclass" : "newobj",
					"numinlets" : 2,
					"numoutlets" : 2,
					"outlettype" : [ "", "" ],
					"patching_rect" : [ 190.0, 190.0, 37.0, 20.0 ],
					"style" : "",
					"text" : "zl reg"
				}

			}
, 			{
				"box" : 				{
					"id" : "obj-3",
					"maxclass" : "newobj",
					"numinlets" : 2,
					"numoutlets" : 2,
					"outlettype" : [ "", "" ],
					"patching_rect" : [ 120.0, 150.0, 41.0, 20.0 ],
					"style" : "",
					"text" : "zl sect"
				}

			}
, 			{
				"box" : 				{
					"comment" : "",
					"id" : "obj-2",
					"index" : 2,
					"maxclass" : "inlet",
					"numinlets" : 0,
					"numoutlets" : 1,
					"outlettype" : [ "" ],
					"patching_rect" : [ 260.0, 80.0, 30.0, 30.0 ],
					"style" : ""
				}

			}
, 			{
				"box" : 				{
					"comment" : "",
					"id" : "obj-1",
					"index" : 1,
					"maxclass" : "inlet",
					"numinlets" : 0,
					"numoutlets" : 1,
					"outlettype" : [ "" ],
					"patching_rect" : [ 90.0, 50.0, 30.0, 30.0 ],
					"style" : ""
				}

			}
 ],
		"lines" : [ 			{
				"patchline" : 				{
					"destination" : [ "obj-4", 0 ],
					"source" : [ "obj-1", 0 ]
				}

			}
, 			{
				"patchline" : 				{
					"destination" : [ "obj-11", 0 ],
					"source" : [ "obj-10", 0 ]
				}

			}
, 			{
				"patchline" : 				{
					"destination" : [ "obj-12", 1 ],
					"order" : 0,
					"source" : [ "obj-10", 1 ]
				}

			}
, 			{
				"patchline" : 				{
					"destination" : [ "obj-14", 0 ],
					"order" : 1,
					"source" : [ "obj-10", 1 ]
				}

			}
, 			{
				"patchline" : 				{
					"destination" : [ "obj-12", 0 ],
					"order" : 0,
					"source" : [ "obj-11", 0 ]
				}

			}
, 			{
				"patchline" : 				{
					"destination" : [ "obj-15", 0 ],
					"order" : 1,
					"source" : [ "obj-11", 0 ]
				}

			}
, 			{
				"patchline" : 				{
					"destination" : [ "obj-9", 0 ],
					"source" : [ "obj-12", 0 ]
				}

			}
, 			{
				"patchline" : 				{
					"destination" : [ "obj-7", 1 ],
					"source" : [ "obj-14", 0 ]
				}

			}
, 			{
				"patchline" : 				{
					"destination" : [ "obj-7", 0 ],
					"source" : [ "obj-15", 0 ]
				}

			}
, 			{
				"patchline" : 				{
					"destination" : [ "obj-18", 0 ],
					"source" : [ "obj-16", 0 ]
				}

			}
, 			{
				"patchline" : 				{
					"destination" : [ "obj-17", 0 ],
					"source" : [ "obj-18", 0 ]
				}

			}
, 			{
				"patchline" : 				{
					"destination" : [ "obj-4", 0 ],
					"source" : [ "obj-18", 1 ]
				}

			}
, 			{
				"patchline" : 				{
					"destination" : [ "obj-11", 1 ],
					"order" : 2,
					"source" : [ "obj-2", 0 ]
				}

			}
, 			{
				"patchline" : 				{
					"destination" : [ "obj-3", 1 ],
					"order" : 1,
					"source" : [ "obj-2", 0 ]
				}

			}
, 			{
				"patchline" : 				{
					"destination" : [ "obj-8", 1 ],
					"order" : 0,
					"source" : [ "obj-2", 0 ]
				}

			}
, 			{
				"patchline" : 				{
					"destination" : [ "obj-10", 0 ],
					"source" : [ "obj-3", 0 ]
				}

			}
, 			{
				"patchline" : 				{
					"destination" : [ "obj-5", 0 ],
					"source" : [ "obj-3", 1 ]
				}

			}
, 			{
				"patchline" : 				{
					"destination" : [ "obj-11", 0 ],
					"order" : 4,
					"source" : [ "obj-4", 0 ]
				}

			}
, 			{
				"patchline" : 				{
					"destination" : [ "obj-12", 0 ],
					"order" : 3,
					"source" : [ "obj-4", 0 ]
				}

			}
, 			{
				"patchline" : 				{
					"destination" : [ "obj-3", 0 ],
					"order" : 5,
					"source" : [ "obj-4", 0 ]
				}

			}
, 			{
				"patchline" : 				{
					"destination" : [ "obj-5", 0 ],
					"order" : 2,
					"source" : [ "obj-4", 0 ]
				}

			}
, 			{
				"patchline" : 				{
					"destination" : [ "obj-6", 0 ],
					"source" : [ "obj-4", 1 ]
				}

			}
, 			{
				"patchline" : 				{
					"destination" : [ "obj-8", 0 ],
					"order" : 1,
					"source" : [ "obj-4", 0 ]
				}

			}
, 			{
				"patchline" : 				{
					"destination" : [ "obj-9", 0 ],
					"order" : 0,
					"source" : [ "obj-4", 0 ]
				}

			}
, 			{
				"patchline" : 				{
					"destination" : [ "obj-8", 0 ],
					"source" : [ "obj-5", 0 ]
				}

			}
, 			{
				"patchline" : 				{
					"destination" : [ "obj-3", 0 ],
					"source" : [ "obj-6", 0 ]
				}

			}
, 			{
				"patchline" : 				{
					"destination" : [ "obj-5", 1 ],
					"source" : [ "obj-6", 1 ]
				}

			}
, 			{
				"patchline" : 				{
					"destination" : [ "obj-16", 0 ],
					"source" : [ "obj-7", 0 ]
				}

			}
, 			{
				"patchline" : 				{
					"destination" : [ "obj-9", 0 ],
					"source" : [ "obj-8", 0 ]
				}

			}
, 			{
				"patchline" : 				{
					"destination" : [ "obj-11", 1 ],
					"order" : 3,
					"source" : [ "obj-9", 0 ]
				}

			}
, 			{
				"patchline" : 				{
					"destination" : [ "obj-13", 0 ],
					"order" : 1,
					"source" : [ "obj-9", 0 ]
				}

			}
, 			{
				"patchline" : 				{
					"destination" : [ "obj-3", 1 ],
					"order" : 2,
					"source" : [ "obj-9", 0 ]
				}

			}
, 			{
				"patchline" : 				{
					"destination" : [ "obj-8", 1 ],
					"order" : 0,
					"source" : [ "obj-9", 0 ]
				}

			}
 ],
		"styles" : [ 			{
				"name" : "Custom Default",
				"default" : 				{
					"patchlinecolor" : [ 0.0, 0.0, 0.0, 0.9 ]
				}
,
				"parentstyle" : "Custom Default-2",
				"multi" : 0
			}
, 			{
				"name" : "Custom Default Regular",
				"newobj" : 				{
					"fontsize" : [ 10.0 ],
					"fontname" : [ "Arial" ]
				}
,
				"message" : 				{
					"fontsize" : [ 10.0 ],
					"fontname" : [ "Arial" ]
				}
,
				"parentstyle" : "",
				"multi" : 0
			}
, 			{
				"name" : "Custom Default Regular-1",
				"newobj" : 				{
					"fontsize" : [ 10.0 ],
					"fontname" : [ "Arial" ]
				}
,
				"message" : 				{
					"fontsize" : [ 10.0 ],
					"fontname" : [ "Arial" ]
				}
,
				"parentstyle" : "",
				"multi" : 1
			}
, 			{
				"name" : "Custom Default Regular-1-1",
				"newobj" : 				{
					"fontsize" : [ 10.0 ],
					"fontname" : [ "Arial" ]
				}
,
				"message" : 				{
					"fontsize" : [ 10.0 ],
					"fontname" : [ "Arial" ]
				}
,
				"parentstyle" : "",
				"multi" : 0
			}
, 			{
				"name" : "Custom Default Regular-1-1-1",
				"newobj" : 				{
					"fontsize" : [ 10.0 ],
					"fontname" : [ "Arial" ]
				}
,
				"message" : 				{
					"fontsize" : [ 10.0 ],
					"fontname" : [ "Arial" ]
				}
,
				"parentstyle" : "",
				"multi" : 1
			}
, 			{
				"name" : "Custom Default Regular-1-1-2",
				"newobj" : 				{
					"fontsize" : [ 10.0 ],
					"fontname" : [ "Arial" ]
				}
,
				"message" : 				{
					"fontsize" : [ 10.0 ],
					"fontname" : [ "Arial" ]
				}
,
				"parentstyle" : "",
				"multi" : 1
			}
, 			{
				"name" : "Custom Default Regular-1-2",
				"newobj" : 				{
					"fontsize" : [ 10.0 ],
					"fontname" : [ "Arial" ]
				}
,
				"message" : 				{
					"fontsize" : [ 10.0 ],
					"fontname" : [ "Arial" ]
				}
,
				"parentstyle" : "",
				"multi" : 0
			}
, 			{
				"name" : "Custom Default Regular-1-2-1",
				"newobj" : 				{
					"fontsize" : [ 10.0 ],
					"fontname" : [ "Arial" ]
				}
,
				"message" : 				{
					"fontsize" : [ 10.0 ],
					"fontname" : [ "Arial" ]
				}
,
				"parentstyle" : "",
				"multi" : 1
			}
, 			{
				"name" : "Custom Default Regular-2",
				"newobj" : 				{
					"fontsize" : [ 10.0 ],
					"fontname" : [ "Arial" ]
				}
,
				"message" : 				{
					"fontsize" : [ 10.0 ],
					"fontname" : [ "Arial" ]
				}
,
				"parentstyle" : "",
				"multi" : 1
			}
, 			{
				"name" : "Custom Default Regular-3",
				"newobj" : 				{
					"fontsize" : [ 10.0 ],
					"fontname" : [ "Arial" ]
				}
,
				"message" : 				{
					"fontsize" : [ 10.0 ],
					"fontname" : [ "Arial" ]
				}
,
				"parentstyle" : "",
				"multi" : 1
			}
, 			{
				"name" : "Custom Default Regular-4",
				"newobj" : 				{
					"fontsize" : [ 10.0 ],
					"fontname" : [ "Arial" ]
				}
,
				"message" : 				{
					"fontsize" : [ 10.0 ],
					"fontname" : [ "Arial" ]
				}
,
				"parentstyle" : "",
				"multi" : 1
			}
, 			{
				"name" : "Custom Default Regular-5",
				"newobj" : 				{
					"fontsize" : [ 10.0 ],
					"fontname" : [ "Arial" ]
				}
,
				"message" : 				{
					"fontsize" : [ 10.0 ],
					"fontname" : [ "Arial" ]
				}
,
				"parentstyle" : "",
				"multi" : 1
			}
, 			{
				"name" : "Custom Default Regular-6",
				"newobj" : 				{
					"fontsize" : [ 10.0 ],
					"fontname" : [ "Arial" ]
				}
,
				"message" : 				{
					"fontsize" : [ 10.0 ],
					"fontname" : [ "Arial" ]
				}
,
				"parentstyle" : "",
				"multi" : 1
			}
, 			{
				"name" : "Custom Default Regular-6-1",
				"newobj" : 				{
					"fontsize" : [ 10.0 ],
					"fontname" : [ "Arial" ]
				}
,
				"message" : 				{
					"fontsize" : [ 10.0 ],
					"fontname" : [ "Arial" ]
				}
,
				"parentstyle" : "",
				"multi" : 0
			}
, 			{
				"name" : "Custom Default Regular-6-1-1",
				"newobj" : 				{
					"fontsize" : [ 10.0 ],
					"fontname" : [ "Arial" ]
				}
,
				"message" : 				{
					"fontsize" : [ 10.0 ],
					"fontname" : [ "Arial" ]
				}
,
				"parentstyle" : "",
				"multi" : 1
			}
, 			{
				"name" : "Custom Default Regular-7",
				"newobj" : 				{
					"fontsize" : [ 10.0 ],
					"fontname" : [ "Arial" ]
				}
,
				"message" : 				{
					"fontsize" : [ 10.0 ],
					"fontname" : [ "Arial" ]
				}
,
				"parentstyle" : "",
				"multi" : 1
			}
, 			{
				"name" : "Custom Default Regular-8",
				"newobj" : 				{
					"fontsize" : [ 10.0 ],
					"fontname" : [ "Arial" ]
				}
,
				"message" : 				{
					"fontsize" : [ 10.0 ],
					"fontname" : [ "Arial" ]
				}
,
				"parentstyle" : "",
				"multi" : 1
			}
, 			{
				"name" : "Custom Default-1",
				"newobj" : 				{
					"fontface" : [ 1 ],
					"fontsize" : [ 10.0 ],
					"bgcolor" : [ 0.0, 0.0, 0.0, 1.0 ],
					"textcolor_inverse" : [ 1.0, 1.0, 1.0, 1.0 ]
				}
,
				"message" : 				{
					"fontface" : [ 1 ],
					"fontsize" : [ 10.0 ],
					"textcolor_inverse" : [ 1.0, 1.0, 1.0, 1.0 ]
				}
,
				"parentstyle" : "",
				"multi" : 0
			}
, 			{
				"name" : "Custom Default-1-1",
				"default" : 				{
					"patchlinecolor" : [ 0.0, 0.0, 0.0, 0.9 ]
				}
,
				"parentstyle" : "Custom Default-2",
				"multi" : 0
			}
, 			{
				"name" : "Custom Default-1-1-1",
				"newobj" : 				{
					"fontface" : [ 1 ],
					"fontsize" : [ 10.0 ],
					"bgcolor" : [ 0.0, 0.0, 0.0, 1.0 ],
					"textcolor_inverse" : [ 1.0, 1.0, 1.0, 1.0 ]
				}
,
				"message" : 				{
					"fontface" : [ 1 ],
					"fontsize" : [ 10.0 ],
					"textcolor_inverse" : [ 1.0, 1.0, 1.0, 1.0 ]
				}
,
				"parentstyle" : "",
				"multi" : 0
			}
, 			{
				"name" : "Custom Default-1-1-1-1",
				"default" : 				{
					"patchlinecolor" : [ 0.0, 0.0, 0.0, 0.9 ]
				}
,
				"parentstyle" : "Custom Default-2",
				"multi" : 0
			}
, 			{
				"name" : "Custom Default-1-1-1-1-1",
				"newobj" : 				{
					"fontface" : [ 1 ],
					"fontsize" : [ 10.0 ],
					"bgcolor" : [ 0.0, 0.0, 0.0, 1.0 ],
					"textcolor_inverse" : [ 1.0, 1.0, 1.0, 1.0 ]
				}
,
				"message" : 				{
					"fontface" : [ 1 ],
					"fontsize" : [ 10.0 ],
					"textcolor_inverse" : [ 1.0, 1.0, 1.0, 1.0 ]
				}
,
				"parentstyle" : "",
				"multi" : 0
			}
, 			{
				"name" : "Custom Default-1-1-1-1-2",
				"newobj" : 				{
					"fontface" : [ 1 ],
					"fontsize" : [ 10.0 ],
					"bgcolor" : [ 0.0, 0.0, 0.0, 1.0 ],
					"textcolor_inverse" : [ 1.0, 1.0, 1.0, 1.0 ]
				}
,
				"message" : 				{
					"fontface" : [ 1 ],
					"fontsize" : [ 10.0 ],
					"textcolor_inverse" : [ 1.0, 1.0, 1.0, 1.0 ]
				}
,
				"parentstyle" : "",
				"multi" : 0
			}
, 			{
				"name" : "Custom Default-1-1-1-2",
				"newobj" : 				{
					"fontface" : [ 1 ],
					"fontsize" : [ 10.0 ],
					"bgcolor" : [ 0.0, 0.0, 0.0, 1.0 ],
					"textcolor_inverse" : [ 1.0, 1.0, 1.0, 1.0 ]
				}
,
				"message" : 				{
					"fontface" : [ 1 ],
					"fontsize" : [ 10.0 ],
					"textcolor_inverse" : [ 1.0, 1.0, 1.0, 1.0 ]
				}
,
				"parentstyle" : "",
				"multi" : 0
			}
, 			{
				"name" : "Custom Default-1-1-1-3",
				"newobj" : 				{
					"fontface" : [ 1 ],
					"fontsize" : [ 10.0 ],
					"bgcolor" : [ 0.0, 0.0, 0.0, 1.0 ],
					"textcolor_inverse" : [ 1.0, 1.0, 1.0, 1.0 ]
				}
,
				"message" : 				{
					"fontface" : [ 1 ],
					"fontsize" : [ 10.0 ],
					"textcolor_inverse" : [ 1.0, 1.0, 1.0, 1.0 ]
				}
,
				"parentstyle" : "",
				"multi" : 0
			}
, 			{
				"name" : "Custom Default-1-1-1-4",
				"default" : 				{
					"patchlinecolor" : [ 0.0, 0.0, 0.0, 0.9 ]
				}
,
				"parentstyle" : "Custom Default-2",
				"multi" : 0
			}
, 			{
				"name" : "Custom Default-1-1-1-4-1",
				"newobj" : 				{
					"fontface" : [ 1 ],
					"fontsize" : [ 10.0 ],
					"bgcolor" : [ 0.0, 0.0, 0.0, 1.0 ],
					"textcolor_inverse" : [ 1.0, 1.0, 1.0, 1.0 ]
				}
,
				"message" : 				{
					"fontface" : [ 1 ],
					"fontsize" : [ 10.0 ],
					"textcolor_inverse" : [ 1.0, 1.0, 1.0, 1.0 ]
				}
,
				"parentstyle" : "",
				"multi" : 0
			}
, 			{
				"name" : "Custom Default-1-1-2",
				"newobj" : 				{
					"fontface" : [ 1 ],
					"fontsize" : [ 10.0 ],
					"bgcolor" : [ 0.0, 0.0, 0.0, 1.0 ],
					"textcolor_inverse" : [ 1.0, 1.0, 1.0, 1.0 ]
				}
,
				"message" : 				{
					"fontface" : [ 1 ],
					"fontsize" : [ 10.0 ],
					"textcolor_inverse" : [ 1.0, 1.0, 1.0, 1.0 ]
				}
,
				"parentstyle" : "",
				"multi" : 0
			}
, 			{
				"name" : "Custom Default-1-1-2-1",
				"default" : 				{
					"patchlinecolor" : [ 0.0, 0.0, 0.0, 0.9 ]
				}
,
				"parentstyle" : "Custom Default-2",
				"multi" : 0
			}
, 			{
				"name" : "Custom Default-1-1-2-2",
				"default" : 				{
					"patchlinecolor" : [ 0.0, 0.0, 0.0, 0.9 ]
				}
,
				"parentstyle" : "Custom Default-2",
				"multi" : 0
			}
, 			{
				"name" : "Custom Default-1-1-3",
				"default" : 				{
					"patchlinecolor" : [ 0.0, 0.0, 0.0, 0.9 ]
				}
,
				"parentstyle" : "Custom Default-2",
				"multi" : 0
			}
, 			{
				"name" : "Custom Default-1-1-4",
				"newobj" : 				{
					"fontface" : [ 1 ],
					"fontsize" : [ 10.0 ],
					"bgcolor" : [ 0.0, 0.0, 0.0, 1.0 ],
					"textcolor_inverse" : [ 1.0, 1.0, 1.0, 1.0 ]
				}
,
				"message" : 				{
					"fontface" : [ 1 ],
					"fontsize" : [ 10.0 ],
					"textcolor_inverse" : [ 1.0, 1.0, 1.0, 1.0 ]
				}
,
				"parentstyle" : "",
				"multi" : 0
			}
, 			{
				"name" : "Custom Default-1-1-4-1",
				"default" : 				{
					"patchlinecolor" : [ 0.0, 0.0, 0.0, 0.9 ]
				}
,
				"parentstyle" : "Custom Default-2",
				"multi" : 0
			}
, 			{
				"name" : "Custom Default-1-2",
				"newobj" : 				{
					"fontface" : [ 1 ],
					"fontsize" : [ 10.0 ],
					"bgcolor" : [ 0.0, 0.0, 0.0, 1.0 ],
					"textcolor_inverse" : [ 1.0, 1.0, 1.0, 1.0 ]
				}
,
				"message" : 				{
					"fontface" : [ 1 ],
					"fontsize" : [ 10.0 ],
					"textcolor_inverse" : [ 1.0, 1.0, 1.0, 1.0 ]
				}
,
				"parentstyle" : "",
				"multi" : 0
			}
, 			{
				"name" : "Custom Default-1-3",
				"default" : 				{
					"patchlinecolor" : [ 0.0, 0.0, 0.0, 0.9 ]
				}
,
				"parentstyle" : "Custom Default-2",
				"multi" : 0
			}
, 			{
				"name" : "Custom Default-1-3-1",
				"newobj" : 				{
					"fontface" : [ 1 ],
					"fontsize" : [ 10.0 ],
					"bgcolor" : [ 0.0, 0.0, 0.0, 1.0 ],
					"textcolor_inverse" : [ 1.0, 1.0, 1.0, 1.0 ]
				}
,
				"message" : 				{
					"fontface" : [ 1 ],
					"fontsize" : [ 10.0 ],
					"textcolor_inverse" : [ 1.0, 1.0, 1.0, 1.0 ]
				}
,
				"parentstyle" : "",
				"multi" : 0
			}
, 			{
				"name" : "Custom Default-1-3-2",
				"newobj" : 				{
					"fontface" : [ 1 ],
					"fontsize" : [ 10.0 ],
					"bgcolor" : [ 0.0, 0.0, 0.0, 1.0 ],
					"textcolor_inverse" : [ 1.0, 1.0, 1.0, 1.0 ]
				}
,
				"message" : 				{
					"fontface" : [ 1 ],
					"fontsize" : [ 10.0 ],
					"textcolor_inverse" : [ 1.0, 1.0, 1.0, 1.0 ]
				}
,
				"parentstyle" : "",
				"multi" : 0
			}
, 			{
				"name" : "Custom Default-1-4",
				"newobj" : 				{
					"fontface" : [ 1 ],
					"fontsize" : [ 10.0 ],
					"bgcolor" : [ 0.0, 0.0, 0.0, 1.0 ],
					"textcolor_inverse" : [ 1.0, 1.0, 1.0, 1.0 ]
				}
,
				"message" : 				{
					"fontface" : [ 1 ],
					"fontsize" : [ 10.0 ],
					"textcolor_inverse" : [ 1.0, 1.0, 1.0, 1.0 ]
				}
,
				"parentstyle" : "",
				"multi" : 0
			}
, 			{
				"name" : "Custom Default-1-5",
				"default" : 				{
					"patchlinecolor" : [ 0.0, 0.0, 0.0, 0.9 ]
				}
,
				"parentstyle" : "Custom Default-2",
				"multi" : 0
			}
, 			{
				"name" : "Custom Default-1-5-1",
				"newobj" : 				{
					"fontface" : [ 1 ],
					"fontsize" : [ 10.0 ],
					"bgcolor" : [ 0.0, 0.0, 0.0, 1.0 ],
					"textcolor_inverse" : [ 1.0, 1.0, 1.0, 1.0 ]
				}
,
				"message" : 				{
					"fontface" : [ 1 ],
					"fontsize" : [ 10.0 ],
					"textcolor_inverse" : [ 1.0, 1.0, 1.0, 1.0 ]
				}
,
				"parentstyle" : "",
				"multi" : 0
			}
, 			{
				"name" : "Custom Default-10",
				"default" : 				{
					"patchlinecolor" : [ 0.0, 0.0, 0.0, 0.9 ]
				}
,
				"parentstyle" : "Custom Default-2",
				"multi" : 0
			}
, 			{
				"name" : "Custom Default-11",
				"default" : 				{
					"patchlinecolor" : [ 0.0, 0.0, 0.0, 0.9 ],
					"fontface" : [ 1 ],
					"fontsize" : [ 10.0 ],
					"bgcolor" : [ 0.0, 0.0, 0.0, 1.0 ]
				}
,
				"parentstyle" : "",
				"multi" : 0
			}
, 			{
				"name" : "Custom Default-11-1",
				"default" : 				{
					"patchlinecolor" : [ 0.0, 0.0, 0.0, 0.9 ]
				}
,
				"parentstyle" : "Custom Default-2",
				"multi" : 0
			}
, 			{
				"name" : "Custom Default-2",
				"newobj" : 				{
					"fontface" : [ 1 ],
					"fontsize" : [ 10.0 ],
					"bgcolor" : [ 0.0, 0.0, 0.0, 1.0 ],
					"textcolor_inverse" : [ 1.0, 1.0, 1.0, 1.0 ]
				}
,
				"message" : 				{
					"fontface" : [ 1 ],
					"fontsize" : [ 10.0 ],
					"textcolor_inverse" : [ 1.0, 1.0, 1.0, 1.0 ]
				}
,
				"parentstyle" : "",
				"multi" : 0
			}
, 			{
				"name" : "Custom Default-3",
				"default" : 				{
					"patchlinecolor" : [ 0.0, 0.0, 0.0, 0.9 ],
					"fontface" : [ 1 ],
					"fontsize" : [ 10.0 ],
					"bgcolor" : [ 0.0, 0.0, 0.0, 1.0 ]
				}
,
				"parentstyle" : "",
				"multi" : 0
			}
, 			{
				"name" : "Custom Default-4",
				"default" : 				{
					"patchlinecolor" : [ 0.0, 0.0, 0.0, 0.9 ],
					"fontface" : [ 1 ],
					"fontsize" : [ 10.0 ],
					"bgcolor" : [ 0.0, 0.0, 0.0, 1.0 ]
				}
,
				"parentstyle" : "",
				"multi" : 0
			}
, 			{
				"name" : "Custom Default-5",
				"default" : 				{
					"patchlinecolor" : [ 0.0, 0.0, 0.0, 0.9 ],
					"fontface" : [ 1 ],
					"fontsize" : [ 10.0 ],
					"bgcolor" : [ 0.0, 0.0, 0.0, 1.0 ]
				}
,
				"parentstyle" : "",
				"multi" : 0
			}
, 			{
				"name" : "Custom Default-6",
				"default" : 				{
					"patchlinecolor" : [ 0.0, 0.0, 0.0, 0.9 ],
					"fontface" : [ 1 ],
					"fontsize" : [ 10.0 ],
					"bgcolor" : [ 0.0, 0.0, 0.0, 1.0 ]
				}
,
				"parentstyle" : "",
				"multi" : 0
			}
, 			{
				"name" : "Custom Default-7",
				"default" : 				{
					"patchlinecolor" : [ 0.0, 0.0, 0.0, 0.9 ],
					"fontface" : [ 1 ],
					"fontsize" : [ 10.0 ],
					"bgcolor" : [ 0.0, 0.0, 0.0, 1.0 ]
				}
,
				"parentstyle" : "",
				"multi" : 0
			}
, 			{
				"name" : "Custom Default-8",
				"default" : 				{
					"patchlinecolor" : [ 0.0, 0.0, 0.0, 0.9 ]
				}
,
				"parentstyle" : "Custom Default-2",
				"multi" : 0
			}
, 			{
				"name" : "Custom Default-8-1",
				"default" : 				{
					"patchlinecolor" : [ 0.0, 0.0, 0.0, 0.9 ],
					"fontface" : [ 1 ],
					"fontsize" : [ 10.0 ],
					"bgcolor" : [ 0.0, 0.0, 0.0, 1.0 ]
				}
,
				"parentstyle" : "",
				"multi" : 0
			}
, 			{
				"name" : "Custom Default-8-2",
				"default" : 				{
					"patchlinecolor" : [ 0.0, 0.0, 0.0, 0.9 ],
					"fontface" : [ 1 ],
					"fontsize" : [ 10.0 ],
					"bgcolor" : [ 0.0, 0.0, 0.0, 1.0 ]
				}
,
				"parentstyle" : "",
				"multi" : 0
			}
, 			{
				"name" : "Custom Default-9",
				"default" : 				{
					"patchlinecolor" : [ 0.0, 0.0, 0.0, 0.9 ],
					"fontface" : [ 1 ],
					"fontsize" : [ 10.0 ],
					"bgcolor" : [ 0.0, 0.0, 0.0, 1.0 ]
				}
,
				"parentstyle" : "",
				"multi" : 0
			}
, 			{
				"name" : "Custom Default-9-1",
				"default" : 				{
					"patchlinecolor" : [ 0.0, 0.0, 0.0, 0.9 ]
				}
,
				"parentstyle" : "Custom Default-2",
				"multi" : 0
			}
, 			{
				"name" : "Custom Default-9-2",
				"default" : 				{
					"patchlinecolor" : [ 0.0, 0.0, 0.0, 0.9 ]
				}
,
				"parentstyle" : "Custom Default-2",
				"multi" : 0
			}
 ],
		"default_bgcolor" : [ 0.0, 0.0, 0.0, 1.0 ],
		"accentcolor" : [ 0.0, 0.0, 0.0, 1.0 ],
		"textcolor" : [ 1.0, 1.0, 1.0, 1.0 ],
		"textcolor_inverse" : [ 1.0, 1.0, 1.0, 1.0 ],
		"patchlinecolor" : [ 0.862745, 0.870588, 0.878431, 0.901961 ],
		"bgfillcolor_type" : "gradient",
		"bgfillcolor_color1" : [ 0.376471, 0.384314, 0.4, 1.0 ],
		"bgfillcolor_color2" : [ 0.290196, 0.309804, 0.301961, 1.0 ],
		"bgfillcolor_color" : [ 0.290196, 0.309804, 0.301961, 1.0 ],
		"bgfillcolor_angle" : 270.0,
		"bgfillcolor_proportion" : 0.39
	}

}
