{
	"patcher" : 	{
		"fileversion" : 1,
		"appversion" : 		{
			"major" : 8,
			"minor" : 0,
			"revision" : 3,
			"architecture" : "x64",
			"modernui" : 1
		}
,
		"classnamespace" : "box",
		"rect" : [ 61.0, 427.0, 751.0, 315.0 ],
		"bglocked" : 0,
		"openinpresentation" : 1,
		"default_fontsize" : 10.0,
		"default_fontface" : 0,
		"default_fontname" : "Arial",
		"gridonopen" : 2,
		"gridsize" : [ 10.0, 10.0 ],
		"gridsnaponopen" : 2,
		"objectsnaponopen" : 1,
		"statusbarvisible" : 2,
		"toolbarvisible" : 1,
		"lefttoolbarpinned" : 0,
		"toptoolbarpinned" : 0,
		"righttoolbarpinned" : 0,
		"bottomtoolbarpinned" : 0,
		"toolbars_unpinned_last_save" : 0,
		"tallnewobj" : 0,
		"boxanimatetime" : 200,
		"enablehscroll" : 1,
		"enablevscroll" : 1,
		"devicewidth" : 0.0,
		"description" : "",
		"digest" : "",
		"tags" : "",
		"style" : "",
		"subpatcher_template" : "To the Sun",
		"boxes" : [ 			{
				"box" : 				{
					"id" : "obj-97",
					"maxclass" : "button",
					"numinlets" : 1,
					"numoutlets" : 1,
					"outlettype" : [ "bang" ],
					"parameter_enable" : 0,
					"patching_rect" : [ 650.0, 500.0, 24.0, 24.0 ]
				}

			}
, 			{
				"box" : 				{
					"format" : 6,
					"id" : "obj-101",
					"maxclass" : "flonum",
					"numinlets" : 1,
					"numoutlets" : 2,
					"outlettype" : [ "", "bang" ],
					"parameter_enable" : 0,
					"patching_rect" : [ 650.0, 480.0, 50.0, 20.0 ],
					"presentation" : 1,
					"presentation_rect" : [ 0.0, 290.0, 50.0, 20.0 ]
				}

			}
, 			{
				"box" : 				{
					"id" : "obj-102",
					"maxclass" : "newobj",
					"numinlets" : 2,
					"numoutlets" : 2,
					"outlettype" : [ "bang", "" ],
					"patching_rect" : [ 633.0, 460.0, 36.0, 20.0 ],
					"text" : "sel -1."
				}

			}
, 			{
				"box" : 				{
					"id" : "obj-98",
					"maxclass" : "message",
					"numinlets" : 2,
					"numoutlets" : 1,
					"outlettype" : [ "" ],
					"patching_rect" : [ 90.0, 450.0, 30.0, 20.0 ],
					"presentation" : 1,
					"presentation_rect" : [ 50.0, 140.0, 30.0, 20.0 ],
					"text" : "clear"
				}

			}
, 			{
				"box" : 				{
					"id" : "obj-93",
					"maxclass" : "newobj",
					"numinlets" : 0,
					"numoutlets" : 1,
					"outlettype" : [ "" ],
					"patching_rect" : [ 349.0, 200.0, 54.0, 20.0 ],
					"text" : "r A_wake"
				}

			}
, 			{
				"box" : 				{
					"id" : "obj-94",
					"maxclass" : "newobj",
					"numinlets" : 1,
					"numoutlets" : 1,
					"outlettype" : [ "" ],
					"patching_rect" : [ 349.0, 220.0, 77.0, 20.0 ],
					"text" : "prepend wake"
				}

			}
, 			{
				"box" : 				{
					"id" : "obj-95",
					"maxclass" : "newobj",
					"numinlets" : 1,
					"numoutlets" : 1,
					"outlettype" : [ "" ],
					"patching_rect" : [ 327.5, 180.0, 97.0, 20.0 ],
					"text" : "prepend tolerance"
				}

			}
, 			{
				"box" : 				{
					"id" : "obj-96",
					"maxclass" : "newobj",
					"numinlets" : 0,
					"numoutlets" : 1,
					"outlettype" : [ "" ],
					"patching_rect" : [ 327.5, 160.0, 72.0, 20.0 ],
					"text" : "r ---tolerance"
				}

			}
, 			{
				"box" : 				{
					"id" : "obj-91",
					"maxclass" : "newobj",
					"numinlets" : 1,
					"numoutlets" : 2,
					"outlettype" : [ "signal", "float" ],
					"patching_rect" : [ 433.75, 370.0, 65.0, 20.0 ],
					"text" : "sampstoms~"
				}

			}
, 			{
				"box" : 				{
					"id" : "obj-90",
					"maxclass" : "newobj",
					"numinlets" : 3,
					"numoutlets" : 2,
					"outlettype" : [ "float", "float" ],
					"patching_rect" : [ 412.75, 350.0, 40.0, 20.0 ],
					"text" : "split 0."
				}

			}
, 			{
				"box" : 				{
					"id" : "obj-89",
					"maxclass" : "newobj",
					"numinlets" : 0,
					"numoutlets" : 1,
					"outlettype" : [ "" ],
					"patching_rect" : [ 620.0, 80.0, 97.0, 20.0 ],
					"text" : "gen.log 1000 logger"
				}

			}
, 			{
				"box" : 				{
					"id" : "obj-88",
					"maxclass" : "newobj",
					"numinlets" : 1,
					"numoutlets" : 2,
					"outlettype" : [ "float", "bang" ],
					"patching_rect" : [ 20.0, 160.0, 132.0, 20.0 ],
					"text" : "buffer~ beats @samps 17 2"
				}

			}
, 			{
				"box" : 				{
					"id" : "obj-87",
					"maxclass" : "newobj",
					"numinlets" : 1,
					"numoutlets" : 1,
					"outlettype" : [ "" ],
					"patching_rect" : [ 625.0, 120.0, 72.0, 20.0 ],
					"text" : "append tempo"
				}

			}
, 			{
				"box" : 				{
					"id" : "obj-86",
					"linecount" : 2,
					"maxclass" : "newobj",
					"numinlets" : 1,
					"numoutlets" : 1,
					"outlettype" : [ "" ],
					"patching_rect" : [ 625.5, 160.0, 67.0, 31.0 ],
					"text" : "append beat interval"
				}

			}
, 			{
				"box" : 				{
					"id" : "obj-79",
					"maxclass" : "newobj",
					"numinlets" : 0,
					"numoutlets" : 1,
					"outlettype" : [ "" ],
					"patching_rect" : [ 635.5, 140.0, 85.0, 20.0 ],
					"text" : "r A_clickTrack"
				}

			}
, 			{
				"box" : 				{
					"id" : "obj-80",
					"maxclass" : "newobj",
					"numinlets" : 0,
					"numoutlets" : 1,
					"outlettype" : [ "" ],
					"patching_rect" : [ 625.0, 100.0, 57.0, 20.0 ],
					"text" : "r ---tempo"
				}

			}
, 			{
				"box" : 				{
					"id" : "obj-78",
					"maxclass" : "newobj",
					"numinlets" : 2,
					"numoutlets" : 2,
					"outlettype" : [ "", "" ],
					"patching_rect" : [ 10.0, 470.0, 84.0, 20.0 ],
					"text" : "substitute 1 clear"
				}

			}
, 			{
				"box" : 				{
					"id" : "obj-70",
					"maxclass" : "newobj",
					"numinlets" : 0,
					"numoutlets" : 1,
					"outlettype" : [ "" ],
					"patching_rect" : [ 10.0, 450.0, 75.0, 20.0 ],
					"text" : "r ---conscious?"
				}

			}
, 			{
				"box" : 				{
					"id" : "obj-72",
					"maxclass" : "comment",
					"numinlets" : 1,
					"numoutlets" : 0,
					"patching_rect" : [ 450.0, 190.0, 150.0, 18.0 ],
					"presentation" : 1,
					"presentation_rect" : [ 330.0, 280.0, 160.0, 18.0 ],
					"text" : "recording | locked | beat interval",
					"textcolor" : [ 0.996078431606293, 0.921568632125854, 0.921568632125854, 1.0 ]
				}

			}
, 			{
				"box" : 				{
					"id" : "obj-25",
					"maxclass" : "number",
					"numinlets" : 1,
					"numoutlets" : 2,
					"outlettype" : [ "", "bang" ],
					"parameter_enable" : 0,
					"patching_rect" : [ 546.0999755859375, 480.0, 50.0, 20.0 ],
					"presentation" : 1,
					"presentation_rect" : [ 366.0999755859375, 290.0, 50.0, 20.0 ]
				}

			}
, 			{
				"box" : 				{
					"format" : 6,
					"id" : "obj-14",
					"maxclass" : "flonum",
					"numinlets" : 1,
					"numoutlets" : 2,
					"outlettype" : [ "", "bang" ],
					"parameter_enable" : 0,
					"patching_rect" : [ 477.0, 480.0, 50.0, 20.0 ],
					"presentation" : 1,
					"presentation_rect" : [ 327.0, 290.0, 50.0, 20.0 ]
				}

			}
, 			{
				"box" : 				{
					"id" : "obj-85",
					"maxclass" : "newobj",
					"numinlets" : 2,
					"numoutlets" : 1,
					"outlettype" : [ "multichannelsignal" ],
					"patching_rect" : [ 169.5, 80.0, 85.0, 20.0 ],
					"text" : "mc.normalize~ 1."
				}

			}
, 			{
				"box" : 				{
					"id" : "obj-47",
					"maxclass" : "toggle",
					"numinlets" : 1,
					"numoutlets" : 1,
					"outlettype" : [ "int" ],
					"parameter_enable" : 0,
					"patching_rect" : [ 512.0, 500.0, 24.0, 24.0 ],
					"presentation" : 1,
					"presentation_rect" : [ 332.0, 231.0, 80.0, 80.0 ]
				}

			}
, 			{
				"box" : 				{
					"id" : "obj-84",
					"maxclass" : "scope~",
					"numinlets" : 2,
					"numoutlets" : 0,
					"patching_rect" : [ 169.5, 100.0, 60.0, 20.0 ],
					"presentation" : 1,
					"presentation_rect" : [ 30.0, 0.0, 430.0, 140.0 ]
				}

			}
, 			{
				"box" : 				{
					"id" : "obj-83",
					"maxclass" : "newobj",
					"numinlets" : 1,
					"numoutlets" : 1,
					"outlettype" : [ "signal" ],
					"patching_rect" : [ 210.5, 40.0, 95.0, 20.0 ],
					"text" : "receive~ envelopes"
				}

			}
, 			{
				"box" : 				{
					"id" : "obj-82",
					"maxclass" : "newobj",
					"numinlets" : 3,
					"numoutlets" : 1,
					"outlettype" : [ "multichannelsignal" ],
					"patching_rect" : [ 169.5, 60.0, 60.0, 20.0 ],
					"text" : "mc.pack~ 3"
				}

			}
, 			{
				"box" : 				{
					"id" : "obj-81",
					"maxclass" : "newobj",
					"numinlets" : 1,
					"numoutlets" : 1,
					"outlettype" : [ "signal" ],
					"patching_rect" : [ 190.0, 20.0, 100.0, 20.0 ],
					"text" : "receive~ master"
				}

			}
, 			{
				"box" : 				{
					"id" : "obj-77",
					"maxclass" : "newobj",
					"numinlets" : 1,
					"numoutlets" : 1,
					"outlettype" : [ "" ],
					"patching_rect" : [ 575.0, 380.0, 101.0, 20.0 ],
					"text" : "loadmess buftime 33"
				}

			}
, 			{
				"box" : 				{
					"id" : "obj-76",
					"maxclass" : "newobj",
					"numinlets" : 0,
					"numoutlets" : 1,
					"outlettype" : [ "" ],
					"patching_rect" : [ 152.0, 370.0, 50.0, 20.0 ],
					"text" : "r A_wake"
				}

			}
, 			{
				"box" : 				{
					"id" : "obj-75",
					"maxclass" : "newobj",
					"numinlets" : 1,
					"numoutlets" : 1,
					"outlettype" : [ "" ],
					"patching_rect" : [ 130.0, 430.0, 103.0, 20.0 ],
					"text" : "prepend sizeinsamps"
				}

			}
, 			{
				"box" : 				{
					"id" : "obj-74",
					"maxclass" : "newobj",
					"numinlets" : 2,
					"numoutlets" : 1,
					"outlettype" : [ "int" ],
					"patching_rect" : [ 130.0, 410.0, 29.5, 20.0 ],
					"text" : "+"
				}

			}
, 			{
				"box" : 				{
					"id" : "obj-73",
					"maxclass" : "newobj",
					"numinlets" : 2,
					"numoutlets" : 1,
					"outlettype" : [ "" ],
					"patching_rect" : [ 130.0, 390.0, 41.0, 20.0 ],
					"text" : "pak 0 0"
				}

			}
, 			{
				"box" : 				{
					"buffername" : "salient",
					"id" : "obj-24",
					"maxclass" : "waveform~",
					"numinlets" : 5,
					"numoutlets" : 6,
					"outlettype" : [ "float", "float", "float", "float", "list", "" ],
					"patching_rect" : [ 392.75, 430.0, 77.0, 20.0 ],
					"presentation" : 1,
					"presentation_rect" : [ 0.0, 231.0, 336.0, 79.0 ],
					"setunit" : 1,
					"vzoom" : 11.0
				}

			}
, 			{
				"box" : 				{
					"id" : "obj-68",
					"maxclass" : "newobj",
					"numinlets" : 1,
					"numoutlets" : 1,
					"outlettype" : [ "" ],
					"patching_rect" : [ 0.0, 390.0, 103.0, 20.0 ],
					"text" : "prepend sizeinsamps"
				}

			}
, 			{
				"box" : 				{
					"id" : "obj-35",
					"maxclass" : "newobj",
					"numinlets" : 2,
					"numoutlets" : 1,
					"outlettype" : [ "int" ],
					"patching_rect" : [ 0.0, 360.0, 29.5, 20.0 ],
					"text" : "+ 1"
				}

			}
, 			{
				"box" : 				{
					"id" : "obj-8",
					"maxclass" : "newobj",
					"numinlets" : 2,
					"numoutlets" : 1,
					"outlettype" : [ "int" ],
					"patching_rect" : [ 0.0, 340.0, 29.5, 20.0 ],
					"text" : "* 4"
				}

			}
, 			{
				"box" : 				{
					"id" : "obj-5",
					"maxclass" : "newobj",
					"numinlets" : 0,
					"numoutlets" : 1,
					"outlettype" : [ "" ],
					"patching_rect" : [ 0.0, 320.0, 66.0, 20.0 ],
					"text" : "r ---tolerance"
				}

			}
, 			{
				"box" : 				{
					"id" : "obj-71",
					"linecount" : 5,
					"maxclass" : "comment",
					"numinlets" : 1,
					"numoutlets" : 0,
					"patching_rect" : [ 380.0, 230.0, 152.0, 62.0 ],
					"text" : "tagge_notes enter (timestamp | ptich | velocity | channel) to be processed by gen. Recitation handled by a separate copy cuz gen always outputs. "
				}

			}
, 			{
				"box" : 				{
					"id" : "obj-69",
					"linecount" : 3,
					"maxclass" : "comment",
					"numinlets" : 1,
					"numoutlets" : 0,
					"patching_rect" : [ 280.0, 470.0, 150.0, 40.0 ],
					"text" : "Unlocking happens from elsewhere, resets click and steady here."
				}

			}
, 			{
				"box" : 				{
					"id" : "obj-64",
					"maxclass" : "comment",
					"numinlets" : 1,
					"numoutlets" : 0,
					"patching_rect" : [ 460.0, 440.0, 240.0, 18.0 ],
					"text" : "recording | likelihood | lock | tempo | click |  score"
				}

			}
, 			{
				"box" : 				{
					"id" : "obj-19",
					"maxclass" : "newobj",
					"numinlets" : 1,
					"numoutlets" : 2,
					"outlettype" : [ "float", "bang" ],
					"patching_rect" : [ 20.0, 280.0, 141.0, 20.0 ],
					"text" : "buffer~ recording @samps 17"
				}

			}
, 			{
				"box" : 				{
					"id" : "obj-67",
					"maxclass" : "newobj",
					"numinlets" : 0,
					"numoutlets" : 1,
					"outlettype" : [ "" ],
					"patching_rect" : [ 288.75, 230.0, 65.0, 20.0 ],
					"text" : "r ---recitation"
				}

			}
, 			{
				"box" : 				{
					"id" : "obj-55",
					"maxclass" : "newobj",
					"numinlets" : 1,
					"numoutlets" : 5,
					"outlettype" : [ "", "", "", "", "" ],
					"patching_rect" : [ 288.75, 250.0, 90.0, 20.0 ],
					"text" : "unjoin 4"
				}

			}
, 			{
				"box" : 				{
					"id" : "obj-57",
					"maxclass" : "newobj",
					"numinlets" : 4,
					"numoutlets" : 6,
					"outlettype" : [ "float", "float", "float", "float", "float", "float" ],
					"patching_rect" : [ 288.75, 270.0, 71.5, 20.0 ],
					"text" : "gen recitation"
				}

			}
, 			{
				"box" : 				{
					"id" : "obj-53",
					"linecount" : 2,
					"maxclass" : "newobj",
					"numinlets" : 1,
					"numoutlets" : 1,
					"outlettype" : [ "" ],
					"patching_rect" : [ 600.0, 240.0, 135.0, 31.0 ],
					"text" : "logExternally(Frame+Phasor)"
				}

			}
, 			{
				"box" : 				{
					"id" : "obj-51",
					"maxclass" : "newobj",
					"numinlets" : 1,
					"numoutlets" : 1,
					"outlettype" : [ "" ],
					"patching_rect" : [ 600.0, 210.0, 136.0, 20.0 ],
					"text" : "prepend PROCESSED note:"
				}

			}
, 			{
				"box" : 				{
					"id" : "obj-66",
					"maxclass" : "newobj",
					"numinlets" : 1,
					"numoutlets" : 2,
					"outlettype" : [ "float", "bang" ],
					"patching_rect" : [ 304.600006103515625, 450.0, 128.0, 20.0 ],
					"text" : "buffer~ steady @samps 17"
				}

			}
, 			{
				"box" : 				{
					"id" : "obj-65",
					"maxclass" : "message",
					"numinlets" : 2,
					"numoutlets" : 1,
					"outlettype" : [ "" ],
					"patching_rect" : [ 304.600006103515625, 430.0, 29.5, 20.0 ],
					"text" : "fill 0."
				}

			}
, 			{
				"box" : 				{
					"id" : "obj-63",
					"maxclass" : "newobj",
					"numinlets" : 3,
					"numoutlets" : 0,
					"patching_rect" : [ 334.100006103515625, 430.0, 60.0, 20.0 ],
					"text" : "poke~ stats"
				}

			}
, 			{
				"box" : 				{
					"id" : "obj-62",
					"maxclass" : "newobj",
					"numinlets" : 1,
					"numoutlets" : 3,
					"outlettype" : [ "bang", "float", "int" ],
					"patching_rect" : [ 304.600006103515625, 410.0, 78.0, 20.0 ],
					"text" : "t bang 0. 6"
				}

			}
, 			{
				"box" : 				{
					"id" : "obj-59",
					"maxclass" : "newobj",
					"numinlets" : 1,
					"numoutlets" : 3,
					"outlettype" : [ "", "int", "int" ],
					"patching_rect" : [ 277.600006103515625, 390.0, 46.0, 20.0 ],
					"text" : "change"
				}

			}
, 			{
				"box" : 				{
					"id" : "obj-61",
					"maxclass" : "newobj",
					"numinlets" : 0,
					"numoutlets" : 1,
					"outlettype" : [ "" ],
					"patching_rect" : [ 277.600006103515625, 370.0, 86.0, 20.0 ],
					"text" : "r A_phasorLock"
				}

			}
, 			{
				"box" : 				{
					"id" : "obj-58",
					"maxclass" : "button",
					"numinlets" : 1,
					"numoutlets" : 1,
					"outlettype" : [ "bang" ],
					"parameter_enable" : 0,
					"patching_rect" : [ 477.0, 500.0, 24.0, 24.0 ]
				}

			}
, 			{
				"box" : 				{
					"id" : "obj-56",
					"maxclass" : "button",
					"numinlets" : 1,
					"numoutlets" : 1,
					"outlettype" : [ "bang" ],
					"parameter_enable" : 0,
					"patching_rect" : [ 546.0999755859375, 500.0, 24.0, 24.0 ]
				}

			}
, 			{
				"box" : 				{
					"id" : "obj-54",
					"maxclass" : "button",
					"numinlets" : 1,
					"numoutlets" : 1,
					"outlettype" : [ "bang" ],
					"parameter_enable" : 0,
					"patching_rect" : [ 615.20001220703125, 500.0, 24.0, 24.0 ]
				}

			}
, 			{
				"box" : 				{
					"id" : "obj-52",
					"maxclass" : "button",
					"numinlets" : 1,
					"numoutlets" : 1,
					"outlettype" : [ "bang" ],
					"parameter_enable" : 0,
					"patching_rect" : [ 580.6500244140625, 500.0, 24.0, 24.0 ]
				}

			}
, 			{
				"box" : 				{
					"comment" : "",
					"id" : "obj-50",
					"index" : 0,
					"maxclass" : "inlet",
					"numinlets" : 0,
					"numoutlets" : 1,
					"outlettype" : [ "" ],
					"patching_rect" : [ 56.0, 0.0, 30.0, 30.0 ]
				}

			}
, 			{
				"box" : 				{
					"id" : "obj-48",
					"maxclass" : "newobj",
					"numinlets" : 1,
					"numoutlets" : 0,
					"patching_rect" : [ 209.5, 370.0, 62.0, 20.0 ],
					"text" : "s processed"
				}

			}
, 			{
				"box" : 				{
					"id" : "obj-34",
					"maxclass" : "newobj",
					"numinlets" : 6,
					"numoutlets" : 1,
					"outlettype" : [ "" ],
					"patching_rect" : [ 209.5, 350.0, 132.699996948242188, 20.0 ],
					"text" : "join 6"
				}

			}
, 			{
				"box" : 				{
					"id" : "obj-23",
					"maxclass" : "newobj",
					"numinlets" : 1,
					"numoutlets" : 2,
					"outlettype" : [ "", "" ],
					"patching_rect" : [ 209.5, 270.0, 29.5, 20.0 ],
					"text" : "t l l"
				}

			}
, 			{
				"box" : 				{
					"format" : 6,
					"id" : "obj-45",
					"maxclass" : "flonum",
					"numinlets" : 1,
					"numoutlets" : 2,
					"outlettype" : [ "", "bang" ],
					"parameter_enable" : 0,
					"patching_rect" : [ 615.20001220703125, 480.0, 50.0, 20.0 ],
					"presentation" : 1,
					"presentation_rect" : [ 410.0, 290.0, 50.0, 20.0 ]
				}

			}
, 			{
				"box" : 				{
					"id" : "obj-32",
					"maxclass" : "newobj",
					"numinlets" : 2,
					"numoutlets" : 2,
					"outlettype" : [ "bang", "" ],
					"patching_rect" : [ 598.20001220703125, 460.0, 36.0, 20.0 ],
					"text" : "sel -1."
				}

			}
, 			{
				"box" : 				{
					"id" : "obj-26",
					"linecount" : 5,
					"maxclass" : "comment",
					"numinlets" : 1,
					"numoutlets" : 0,
					"patching_rect" : [ 554.0, 300.0, 151.0, 62.0 ],
					"text" : "if this gen~ proves too costly, tempo could be decremented in gen after a pipe. Or a wrapped hippocampus, much like the rhythm buffer~."
				}

			}
, 			{
				"box" : 				{
					"id" : "obj-49",
					"maxclass" : "newobj",
					"numinlets" : 1,
					"numoutlets" : 1,
					"outlettype" : [ "" ],
					"patching_rect" : [ 201.5, 230.0, 91.0, 20.0 ],
					"text" : "prepend backing"
				}

			}
, 			{
				"box" : 				{
					"id" : "obj-60",
					"maxclass" : "newobj",
					"numinlets" : 0,
					"numoutlets" : 1,
					"outlettype" : [ "" ],
					"patching_rect" : [ 201.5, 210.0, 77.0, 20.0 ],
					"text" : "r backingBeat"
				}

			}
, 			{
				"box" : 				{
					"id" : "obj-20",
					"maxclass" : "newobj",
					"numinlets" : 1,
					"numoutlets" : 2,
					"outlettype" : [ "float", "bang" ],
					"patching_rect" : [ 20.0, 300.0, 124.0, 20.0 ],
					"text" : "buffer~ mode @samps 17"
				}

			}
, 			{
				"box" : 				{
					"id" : "obj-18",
					"maxclass" : "newobj",
					"numinlets" : 1,
					"numoutlets" : 2,
					"outlettype" : [ "float", "bang" ],
					"patching_rect" : [ 20.0, 260.0, 137.0, 20.0 ],
					"text" : "buffer~ unstable @samps 17"
				}

			}
, 			{
				"box" : 				{
					"id" : "obj-16",
					"maxclass" : "newobj",
					"numinlets" : 1,
					"numoutlets" : 2,
					"outlettype" : [ "float", "bang" ],
					"patching_rect" : [ 20.0, 240.0, 126.0, 20.0 ],
					"text" : "buffer~ stable @samps 17"
				}

			}
, 			{
				"box" : 				{
					"id" : "obj-12",
					"maxclass" : "newobj",
					"numinlets" : 1,
					"numoutlets" : 1,
					"outlettype" : [ "signal" ],
					"patching_rect" : [ 554.0, 360.0, 75.0, 20.0 ],
					"text" : "receive~ frame"
				}

			}
, 			{
				"box" : 				{
					"id" : "obj-10",
					"maxclass" : "newobj",
					"numinlets" : 2,
					"numoutlets" : 2,
					"outlettype" : [ "bang", "" ],
					"patching_rect" : [ 460.0, 460.0, 36.0, 20.0 ],
					"text" : "sel -1."
				}

			}
, 			{
				"box" : 				{
					"id" : "obj-46",
					"maxclass" : "newobj",
					"numinlets" : 1,
					"numoutlets" : 5,
					"outlettype" : [ "", "", "", "", "" ],
					"patching_rect" : [ 220.0, 290.0, 249.333328247070313, 20.0 ],
					"text" : "unjoin 4"
				}

			}
, 			{
				"box" : 				{
					"id" : "obj-27",
					"maxclass" : "newobj",
					"numinlets" : 0,
					"numoutlets" : 1,
					"outlettype" : [ "" ],
					"patching_rect" : [ 209.5, 250.0, 75.0, 20.0 ],
					"text" : "r tagged_notes"
				}

			}
, 			{
				"box" : 				{
					"id" : "obj-31",
					"maxclass" : "newobj",
					"numinlets" : 1,
					"numoutlets" : 2,
					"outlettype" : [ "float", "bang" ],
					"patching_rect" : [ 130.0, 460.0, 146.0, 20.0 ],
					"text" : "buffer~ memory @samps 8030"
				}

			}
, 			{
				"box" : 				{
					"id" : "obj-30",
					"maxclass" : "newobj",
					"numinlets" : 1,
					"numoutlets" : 2,
					"outlettype" : [ "float", "bang" ],
					"patching_rect" : [ 110.0, 480.0, 138.0, 20.0 ],
					"text" : "buffer~ tempo @samps 8030"
				}

			}
, 			{
				"box" : 				{
					"buffername" : "tempo",
					"id" : "obj-29",
					"maxclass" : "waveform~",
					"numinlets" : 5,
					"numoutlets" : 6,
					"outlettype" : [ "float", "float", "float", "float", "list", "" ],
					"patching_rect" : [ 411.0, 1.0, 336.0, 79.0 ],
					"presentation" : 1,
					"presentation_rect" : [ 411.0, 231.0, 336.0, 79.0 ],
					"setunit" : 1,
					"vzoom" : 15.0
				}

			}
, 			{
				"box" : 				{
					"id" : "obj-13",
					"maxclass" : "newobj",
					"numinlets" : 1,
					"numoutlets" : 2,
					"outlettype" : [ "bang", "int" ],
					"patching_rect" : [ 517.0, 320.0, 41.0, 20.0 ],
					"text" : "t bang i"
				}

			}
, 			{
				"box" : 				{
					"id" : "obj-3",
					"maxclass" : "newobj",
					"numinlets" : 1,
					"numoutlets" : 1,
					"outlettype" : [ "signal" ],
					"patching_rect" : [ 517.0, 340.0, 34.0, 20.0 ],
					"text" : "click~"
				}

			}
, 			{
				"box" : 				{
					"id" : "obj-2",
					"maxclass" : "newobj",
					"numinlets" : 2,
					"numoutlets" : 1,
					"outlettype" : [ "signal" ],
					"patching_rect" : [ 517.0, 360.0, 41.0, 20.0 ],
					"text" : "*~ 1."
				}

			}
, 			{
				"box" : 				{
					"id" : "obj-1",
					"maxclass" : "newobj",
					"numinlets" : 2,
					"numoutlets" : 1,
					"outlettype" : [ "signal" ],
					"patcher" : 					{
						"fileversion" : 1,
						"appversion" : 						{
							"major" : 8,
							"minor" : 0,
							"revision" : 3,
							"architecture" : "x64",
							"modernui" : 1
						}
,
						"classnamespace" : "dsp.gen",
						"rect" : [ 42.0, 116.0, 753.0, 531.0 ],
						"bglocked" : 0,
						"openinpresentation" : 0,
						"default_fontsize" : 10.0,
						"default_fontface" : 0,
						"default_fontname" : "Arial",
						"gridonopen" : 2,
						"gridsize" : [ 10.0, 10.0 ],
						"gridsnaponopen" : 2,
						"objectsnaponopen" : 1,
						"statusbarvisible" : 2,
						"toolbarvisible" : 1,
						"lefttoolbarpinned" : 0,
						"toptoolbarpinned" : 0,
						"righttoolbarpinned" : 0,
						"bottomtoolbarpinned" : 0,
						"toolbars_unpinned_last_save" : 0,
						"tallnewobj" : 0,
						"boxanimatetime" : 200,
						"enablehscroll" : 1,
						"enablevscroll" : 1,
						"devicewidth" : 0.0,
						"description" : "",
						"digest" : "",
						"tags" : "",
						"style" : "",
						"subpatcher_template" : "To the Sun",
						"boxes" : [ 							{
								"box" : 								{
									"id" : "obj-1",
									"maxclass" : "newobj",
									"numinlets" : 0,
									"numoutlets" : 1,
									"outlettype" : [ "" ],
									"patching_rect" : [ 50.0, 10.0, 25.0, 20.0 ],
									"text" : "in 1"
								}

							}
, 							{
								"box" : 								{
									"id" : "obj-2",
									"maxclass" : "newobj",
									"numinlets" : 0,
									"numoutlets" : 1,
									"outlettype" : [ "" ],
									"patching_rect" : [ 720.0, 10.0, 25.0, 20.0 ],
									"text" : "in 2"
								}

							}
, 							{
								"box" : 								{
									"code" : "require(\"log\");\r\n\r\nBuffer memory(\"memory\");\r\nBuffer tempo(\"tempo\");\r\nBuffer stats(\"stats\");\r\nParam tolerance(9);\r\nParam wake(8000);\r\nParam input(0);\r\nData hippocampus(wake / tolerance);\r\nDelay time((wake / 1000) * SAMPLERATE, feedback = 0);\r\nHistory vibe(-1);\r\nHistory length(0);\r\nHistory prior(0);\r\nHistory check(0);\r\nHistory check2(0);\r\naggregate = 0;\r\nframe = in2;\r\ncenter = 0;\r\nif(in1 > 0) {\r\n\tif(!stats.peek(10)) {\r\n\t\tinterval = frame - prior;\r\n\t\tif(interval > tolerance * 2) {\r\n\t\t\tfor(i = length - 1; i >= 0; i -= 1) {\r\n\t\t\t\tmemory.poke(memory.peek(i), i + 1);\r\n\t\t\t}\r\n\t\t\tmemory.poke(interval, 0);\r\n\t\t\tlength += 1;\r\n\t\t\tprior = frame;\r\n\t\t\tfor(i = 0; i < 1; i += 1) { //'< wake' changed to '< 1'. only using 1st index to find bpm not measure\r\n\t\t\t\tif(!memory.peek(i)) {\r\n\t\t\t\t\tbreak;\r\n\t\t\t\t}\r\n\t\t\t\taggregate += memory.peek(i);\r\n\t\t\t\tif(aggregate <= wake) {\r\n\t\t\t\t\thippocampus.poke(aggregate, i);\t\t\t\t\r\n\t\t\t\t\tvibe = i;\r\n\t\t\t\t\tfor(j = aggregate - tolerance; j <= aggregate + tolerance; j += 1) {\r\n\t\t\t\t\t\ttempo.poke(tempo.peek(j) + 1, j);\r\n\t\t\t\t\t}\r\n\t\t\t\t}\r\n\t\t\t\telse {\r\n\t\t\t\t\tmemory.poke(0, i);\r\n\t\t\t\t\tlength -= 1;\r\n\t\t\t\t}\r\n\t\t\t}\r\n\t\t}\r\n\t}\r\n}\r\nout1 = latch(center, center);\r\nif(vibe >= 0) {\r\n\ttime.write(hippocampus.peek(vibe));\r\n\tvibe -= 1;\t\t\t\t\t\t\r\n\tcheck += 1;\t\t\t\t\t\t\r\n}\r\nelse {\r\n\ttime.write(0);\r\n}\r\nforget = time.read((wake / 1000) * SAMPLERATE);\r\nif(forget) {\r\n\tfor(j = forget - tolerance; j <= forget + tolerance; j += 1) {\r\n\t\ttempo.poke(tempo.peek(j) - 1, j);\r\n\t}\r\n}",
									"fontface" : 0,
									"fontname" : "Lucida Console",
									"fontsize" : 10.0,
									"id" : "obj-3",
									"maxclass" : "codebox",
									"numinlets" : 2,
									"numoutlets" : 1,
									"outlettype" : [ "" ],
									"patching_rect" : [ 50.0, 30.0, 690.0, 481.0 ]
								}

							}
, 							{
								"box" : 								{
									"id" : "obj-4",
									"maxclass" : "newobj",
									"numinlets" : 1,
									"numoutlets" : 0,
									"patching_rect" : [ 50.0, 510.0, 31.0, 20.0 ],
									"text" : "out 1"
								}

							}
 ],
						"lines" : [ 							{
								"patchline" : 								{
									"destination" : [ "obj-3", 0 ],
									"source" : [ "obj-1", 0 ]
								}

							}
, 							{
								"patchline" : 								{
									"destination" : [ "obj-3", 1 ],
									"source" : [ "obj-2", 0 ]
								}

							}
, 							{
								"patchline" : 								{
									"destination" : [ "obj-4", 0 ],
									"source" : [ "obj-3", 0 ]
								}

							}
 ],
						"bgfillcolor_type" : "gradient",
						"bgfillcolor_color1" : [ 0.376471, 0.384314, 0.4, 1.0 ],
						"bgfillcolor_color2" : [ 0.290196, 0.309804, 0.301961, 1.0 ],
						"bgfillcolor_color" : [ 0.290196, 0.309804, 0.301961, 1.0 ]
					}
,
					"patching_rect" : [ 517.0, 380.0, 56.0, 20.0 ],
					"text" : "gen~"
				}

			}
, 			{
				"box" : 				{
					"id" : "obj-38",
					"maxclass" : "newobj",
					"numinlets" : 2,
					"numoutlets" : 2,
					"outlettype" : [ "bang", "" ],
					"patching_rect" : [ 563.6500244140625, 460.0, 36.0, 20.0 ],
					"text" : "sel -1."
				}

			}
, 			{
				"box" : 				{
					"id" : "obj-21",
					"maxclass" : "newobj",
					"numinlets" : 2,
					"numoutlets" : 2,
					"outlettype" : [ "bang", "" ],
					"patching_rect" : [ 495.0, 460.0, 36.0, 20.0 ],
					"text" : "sel -1."
				}

			}
, 			{
				"box" : 				{
					"id" : "obj-44",
					"maxclass" : "newobj",
					"numinlets" : 1,
					"numoutlets" : 2,
					"outlettype" : [ "int", "bang" ],
					"patching_rect" : [ 16.0, 30.0, 41.0, 20.0 ],
					"text" : "t i bang"
				}

			}
, 			{
				"box" : 				{
					"id" : "obj-42",
					"maxclass" : "newobj",
					"numinlets" : 2,
					"numoutlets" : 1,
					"outlettype" : [ "float" ],
					"patching_rect" : [ 100.5, 60.0, 69.0, 20.0 ],
					"text" : "snapshot~ 33"
				}

			}
, 			{
				"box" : 				{
					"bgcolor" : [ 0.2, 0.2, 0.2, 0.0 ],
					"id" : "obj-41",
					"ignoreclick" : 1,
					"maxclass" : "multislider",
					"numinlets" : 1,
					"numoutlets" : 2,
					"orientation" : 0,
					"outlettype" : [ "", "" ],
					"parameter_enable" : 0,
					"patching_rect" : [ 100.5, 80.0, 49.5, 20.0 ],
					"presentation" : 1,
					"presentation_rect" : [ 0.0, 140.0, 747.0, 170.0 ],
					"setminmax" : [ 0.0, 8029.0 ],
					"slidercolor" : [ 0.0, 0.07843137254902, 0.988235294117647, 1.0 ],
					"thickness" : 1
				}

			}
, 			{
				"box" : 				{
					"bgcolor" : [ 0.2, 0.2, 0.2, 0.0 ],
					"id" : "obj-40",
					"ignoreclick" : 1,
					"maxclass" : "multislider",
					"numinlets" : 1,
					"numoutlets" : 2,
					"orientation" : 0,
					"outlettype" : [ "", "" ],
					"parameter_enable" : 0,
					"patching_rect" : [ 16.0, 100.0, 77.0, 20.0 ],
					"presentation" : 1,
					"presentation_rect" : [ 0.0, 140.0, 747.0, 170.0 ],
					"setminmax" : [ 0.0, 8029.0 ],
					"slidercolor" : [ 0.0, 0.992156862745098, 0.043137254901961, 1.0 ],
					"thickness" : 1
				}

			}
, 			{
				"box" : 				{
					"format" : 6,
					"id" : "obj-39",
					"maxclass" : "flonum",
					"numinlets" : 1,
					"numoutlets" : 2,
					"outlettype" : [ "", "bang" ],
					"parameter_enable" : 0,
					"patching_rect" : [ 580.6500244140625, 480.0, 53.550018310546875, 20.0 ]
				}

			}
, 			{
				"box" : 				{
					"id" : "obj-37",
					"maxclass" : "newobj",
					"numinlets" : 2,
					"numoutlets" : 1,
					"outlettype" : [ "float" ],
					"patching_rect" : [ 38.0, 60.0, 55.0, 20.0 ],
					"text" : "snapshot~"
				}

			}
, 			{
				"box" : 				{
					"bgcolor" : [ 0.2, 0.2, 0.2, 0.0 ],
					"id" : "obj-36",
					"ignoreclick" : 1,
					"maxclass" : "multislider",
					"numinlets" : 1,
					"numoutlets" : 2,
					"orientation" : 0,
					"outlettype" : [ "", "" ],
					"parameter_enable" : 0,
					"patching_rect" : [ 38.0, 80.0, 55.0, 20.0 ],
					"presentation" : 1,
					"presentation_rect" : [ 0.0, 140.0, 747.0, 170.0 ],
					"setminmax" : [ 0.0, 8029.0 ],
					"slidercolor" : [ 0.996078431372549, 0.0, 0.0, 1.0 ],
					"thickness" : 1
				}

			}
, 			{
				"box" : 				{
					"id" : "obj-22",
					"maxclass" : "newobj",
					"numinlets" : 1,
					"numoutlets" : 2,
					"outlettype" : [ "float", "bang" ],
					"patching_rect" : [ 0.0, 410.0, 128.0, 20.0 ],
					"text" : "buffer~ salient @samps 36"
				}

			}
, 			{
				"box" : 				{
					"id" : "obj-33",
					"linecount" : 3,
					"maxclass" : "comment",
					"numinlets" : 1,
					"numoutlets" : 0,
					"patching_rect" : [ 130.0, 160.0, 150.0, 40.0 ],
					"text" : "makes sure initial prior_timestamps are so far in the past as to be irrelevant."
				}

			}
, 			{
				"box" : 				{
					"id" : "obj-28",
					"maxclass" : "newobj",
					"numinlets" : 1,
					"numoutlets" : 1,
					"outlettype" : [ "" ],
					"patching_rect" : [ 20.0, 180.0, 109.0, 20.0 ],
					"text" : "loadmess fill -9999999"
				}

			}
, 			{
				"box" : 				{
					"id" : "obj-17",
					"maxclass" : "newobj",
					"numinlets" : 2,
					"numoutlets" : 3,
					"outlettype" : [ "int", "int", "int" ],
					"patching_rect" : [ 363.958343505859375, 350.0, 40.0, 20.0 ],
					"text" : "peak 0"
				}

			}
, 			{
				"box" : 				{
					"id" : "obj-15",
					"maxclass" : "number",
					"numinlets" : 1,
					"numoutlets" : 2,
					"outlettype" : [ "", "bang" ],
					"parameter_enable" : 0,
					"patching_rect" : [ 512.0, 480.0, 50.0, 20.0 ]
				}

			}
, 			{
				"box" : 				{
					"id" : "obj-11",
					"maxclass" : "newobj",
					"numinlets" : 1,
					"numoutlets" : 1,
					"outlettype" : [ "" ],
					"patching_rect" : [ 363.958343505859375, 370.0, 77.0, 20.0 ],
					"text" : "prepend vzoom"
				}

			}
, 			{
				"box" : 				{
					"id" : "obj-9",
					"maxclass" : "newobj",
					"numinlets" : 4,
					"numoutlets" : 7,
					"outlettype" : [ "float", "float", "float", "float", "float", "float", "float" ],
					"patching_rect" : [ 220.0, 320.0, 191.75, 20.0 ],
					"text" : "gen rhythm"
				}

			}
, 			{
				"box" : 				{
					"id" : "obj-7",
					"maxclass" : "newobj",
					"numinlets" : 1,
					"numoutlets" : 2,
					"outlettype" : [ "float", "bang" ],
					"patching_rect" : [ 20.0, 220.0, 150.0, 20.0 ],
					"text" : "buffer~ intervals @size 1000 33"
				}

			}
, 			{
				"box" : 				{
					"id" : "obj-6",
					"maxclass" : "newobj",
					"numinlets" : 1,
					"numoutlets" : 2,
					"outlettype" : [ "float", "bang" ],
					"patching_rect" : [ 20.0, 200.0, 176.0, 20.0 ],
					"text" : "buffer~ prior_timestamps @samps 33"
				}

			}
, 			{
				"box" : 				{
					"id" : "obj-4",
					"maxclass" : "newobj",
					"numinlets" : 1,
					"numoutlets" : 1,
					"outlettype" : [ "signal" ],
					"patching_rect" : [ 90.0, 10.0, 75.0, 20.0 ],
					"text" : "receive~ frame"
				}

			}
, 			{
				"box" : 				{
					"buffername" : "rhythm",
					"id" : "obj-100",
					"maxclass" : "waveform~",
					"numinlets" : 5,
					"numoutlets" : 6,
					"outlettype" : [ "float", "float", "float", "float", "list", "" ],
					"patching_rect" : [ 407.5, 410.0, 62.5, 20.0 ],
					"presentation" : 1,
					"presentation_rect" : [ 0.0, 140.0, 747.0, 170.0 ],
					"setunit" : 1,
					"vzoom" : 11.0
				}

			}
, 			{
				"box" : 				{
					"id" : "obj-99",
					"maxclass" : "newobj",
					"numinlets" : 1,
					"numoutlets" : 2,
					"outlettype" : [ "float", "bang" ],
					"patching_rect" : [ 90.0, 500.0, 141.0, 20.0 ],
					"text" : "buffer~ rhythm @samps 8030"
				}

			}
, 			{
				"box" : 				{
					"id" : "obj-92",
					"maxclass" : "newobj",
					"numinlets" : 2,
					"numoutlets" : 3,
					"outlettype" : [ "signal", "signal", "signal" ],
					"patcher" : 					{
						"fileversion" : 1,
						"appversion" : 						{
							"major" : 8,
							"minor" : 0,
							"revision" : 3,
							"architecture" : "x64",
							"modernui" : 1
						}
,
						"classnamespace" : "dsp.gen",
						"rect" : [ 92.0, 166.0, 693.0, 450.0 ],
						"bglocked" : 0,
						"openinpresentation" : 0,
						"default_fontsize" : 12.0,
						"default_fontface" : 0,
						"default_fontname" : "Arial",
						"gridonopen" : 1,
						"gridsize" : [ 15.0, 15.0 ],
						"gridsnaponopen" : 1,
						"objectsnaponopen" : 1,
						"statusbarvisible" : 2,
						"toolbarvisible" : 1,
						"lefttoolbarpinned" : 0,
						"toptoolbarpinned" : 0,
						"righttoolbarpinned" : 0,
						"bottomtoolbarpinned" : 0,
						"toolbars_unpinned_last_save" : 0,
						"tallnewobj" : 0,
						"boxanimatetime" : 200,
						"enablehscroll" : 1,
						"enablevscroll" : 1,
						"devicewidth" : 0.0,
						"description" : "",
						"digest" : "",
						"tags" : "",
						"style" : "",
						"subpatcher_template" : "To the Sun",
						"boxes" : [ 							{
								"box" : 								{
									"id" : "obj-6",
									"maxclass" : "newobj",
									"numinlets" : 1,
									"numoutlets" : 0,
									"patching_rect" : [ 428.0, 332.0, 35.0, 22.0 ],
									"text" : "out 3"
								}

							}
, 							{
								"box" : 								{
									"id" : "obj-5",
									"maxclass" : "newobj",
									"numinlets" : 1,
									"numoutlets" : 0,
									"patching_rect" : [ 225.0, 332.0, 35.0, 22.0 ],
									"text" : "out 2"
								}

							}
, 							{
								"box" : 								{
									"id" : "obj-1",
									"maxclass" : "newobj",
									"numinlets" : 0,
									"numoutlets" : 1,
									"outlettype" : [ "" ],
									"patching_rect" : [ 22.0, 6.0, 28.0, 22.0 ],
									"text" : "in 1"
								}

							}
, 							{
								"box" : 								{
									"id" : "obj-2",
									"maxclass" : "newobj",
									"numinlets" : 0,
									"numoutlets" : 1,
									"outlettype" : [ "" ],
									"patching_rect" : [ 305.0, 14.0, 28.0, 22.0 ],
									"text" : "in 2"
								}

							}
, 							{
								"box" : 								{
									"code" : "Buffer stats(\"stats\");\r\nBuffer rhythm(\"rhythm\");\r\nParam tolerance(9);\r\nParam wake(8000);\r\natom = tolerance * 2;\r\nframe = in1;\r\neraser = round((frame - (atom * 3)) % dim(rhythm));\t//round() needed\r\nrhythm.poke(0, eraser);\r\nwrapped = round(frame % dim(rhythm));\r\nout1 = eraser;\r\nout2 = wrapped;\r\nout3 = rhythm.peek(wrapped);\r\n",
									"fontface" : 0,
									"fontname" : "Lucida Console",
									"fontsize" : 12.0,
									"id" : "obj-3",
									"maxclass" : "codebox",
									"numinlets" : 1,
									"numoutlets" : 3,
									"outlettype" : [ "", "", "" ],
									"patching_rect" : [ 22.0, 38.0, 576.0, 284.0 ]
								}

							}
, 							{
								"box" : 								{
									"id" : "obj-4",
									"maxclass" : "newobj",
									"numinlets" : 1,
									"numoutlets" : 0,
									"patching_rect" : [ 22.0, 332.0, 35.0, 22.0 ],
									"text" : "out 1"
								}

							}
 ],
						"lines" : [ 							{
								"patchline" : 								{
									"destination" : [ "obj-3", 0 ],
									"source" : [ "obj-1", 0 ]
								}

							}
, 							{
								"patchline" : 								{
									"destination" : [ "obj-4", 0 ],
									"source" : [ "obj-3", 0 ]
								}

							}
, 							{
								"patchline" : 								{
									"destination" : [ "obj-5", 0 ],
									"source" : [ "obj-3", 1 ]
								}

							}
, 							{
								"patchline" : 								{
									"destination" : [ "obj-6", 0 ],
									"source" : [ "obj-3", 2 ]
								}

							}
 ]
					}
,
					"patching_rect" : [ 90.0, 30.0, 40.0, 20.0 ],
					"text" : "gen~"
				}

			}
, 			{
				"box" : 				{
					"id" : "obj-43",
					"maxclass" : "newobj",
					"numinlets" : 2,
					"numoutlets" : 2,
					"outlettype" : [ "bang", "" ],
					"patching_rect" : [ 529.0999755859375, 460.0, 36.0, 20.0 ],
					"text" : "sel -1."
				}

			}
 ],
		"lines" : [ 			{
				"patchline" : 				{
					"destination" : [ "obj-14", 0 ],
					"source" : [ "obj-10", 1 ]
				}

			}
, 			{
				"patchline" : 				{
					"destination" : [ "obj-97", 0 ],
					"source" : [ "obj-101", 0 ]
				}

			}
, 			{
				"patchline" : 				{
					"destination" : [ "obj-101", 0 ],
					"source" : [ "obj-102", 1 ]
				}

			}
, 			{
				"patchline" : 				{
					"destination" : [ "obj-100", 0 ],
					"order" : 0,
					"source" : [ "obj-11", 0 ]
				}

			}
, 			{
				"patchline" : 				{
					"destination" : [ "obj-24", 0 ],
					"order" : 1,
					"source" : [ "obj-11", 0 ]
				}

			}
, 			{
				"patchline" : 				{
					"destination" : [ "obj-1", 1 ],
					"source" : [ "obj-12", 0 ]
				}

			}
, 			{
				"patchline" : 				{
					"destination" : [ "obj-2", 1 ],
					"source" : [ "obj-13", 1 ]
				}

			}
, 			{
				"patchline" : 				{
					"destination" : [ "obj-3", 0 ],
					"source" : [ "obj-13", 0 ]
				}

			}
, 			{
				"patchline" : 				{
					"destination" : [ "obj-58", 0 ],
					"source" : [ "obj-14", 0 ]
				}

			}
, 			{
				"patchline" : 				{
					"destination" : [ "obj-47", 0 ],
					"source" : [ "obj-15", 0 ]
				}

			}
, 			{
				"patchline" : 				{
					"destination" : [ "obj-11", 0 ],
					"source" : [ "obj-17", 0 ]
				}

			}
, 			{
				"patchline" : 				{
					"destination" : [ "obj-1", 0 ],
					"source" : [ "obj-2", 0 ]
				}

			}
, 			{
				"patchline" : 				{
					"destination" : [ "obj-15", 0 ],
					"source" : [ "obj-21", 1 ]
				}

			}
, 			{
				"patchline" : 				{
					"destination" : [ "obj-34", 0 ],
					"source" : [ "obj-23", 0 ]
				}

			}
, 			{
				"patchline" : 				{
					"destination" : [ "obj-46", 0 ],
					"source" : [ "obj-23", 1 ]
				}

			}
, 			{
				"patchline" : 				{
					"destination" : [ "obj-56", 0 ],
					"source" : [ "obj-25", 0 ]
				}

			}
, 			{
				"patchline" : 				{
					"destination" : [ "obj-23", 0 ],
					"source" : [ "obj-27", 0 ]
				}

			}
, 			{
				"patchline" : 				{
					"destination" : [ "obj-6", 0 ],
					"source" : [ "obj-28", 0 ]
				}

			}
, 			{
				"patchline" : 				{
					"destination" : [ "obj-2", 0 ],
					"source" : [ "obj-3", 0 ]
				}

			}
, 			{
				"patchline" : 				{
					"destination" : [ "obj-45", 0 ],
					"source" : [ "obj-32", 1 ]
				}

			}
, 			{
				"patchline" : 				{
					"destination" : [ "obj-48", 0 ],
					"order" : 1,
					"source" : [ "obj-34", 0 ]
				}

			}
, 			{
				"patchline" : 				{
					"destination" : [ "obj-51", 0 ],
					"order" : 0,
					"source" : [ "obj-34", 0 ]
				}

			}
, 			{
				"patchline" : 				{
					"destination" : [ "obj-68", 0 ],
					"order" : 1,
					"source" : [ "obj-35", 0 ]
				}

			}
, 			{
				"patchline" : 				{
					"destination" : [ "obj-73", 0 ],
					"order" : 0,
					"source" : [ "obj-35", 0 ]
				}

			}
, 			{
				"patchline" : 				{
					"destination" : [ "obj-36", 0 ],
					"source" : [ "obj-37", 0 ]
				}

			}
, 			{
				"patchline" : 				{
					"destination" : [ "obj-39", 0 ],
					"source" : [ "obj-38", 1 ]
				}

			}
, 			{
				"patchline" : 				{
					"destination" : [ "obj-44", 0 ],
					"order" : 1,
					"source" : [ "obj-39", 0 ]
				}

			}
, 			{
				"patchline" : 				{
					"destination" : [ "obj-52", 0 ],
					"order" : 0,
					"source" : [ "obj-39", 0 ]
				}

			}
, 			{
				"patchline" : 				{
					"destination" : [ "obj-92", 0 ],
					"source" : [ "obj-4", 0 ]
				}

			}
, 			{
				"patchline" : 				{
					"destination" : [ "obj-41", 0 ],
					"source" : [ "obj-42", 0 ]
				}

			}
, 			{
				"patchline" : 				{
					"destination" : [ "obj-25", 0 ],
					"source" : [ "obj-43", 1 ]
				}

			}
, 			{
				"patchline" : 				{
					"destination" : [ "obj-37", 0 ],
					"source" : [ "obj-44", 1 ]
				}

			}
, 			{
				"patchline" : 				{
					"destination" : [ "obj-40", 0 ],
					"source" : [ "obj-44", 0 ]
				}

			}
, 			{
				"patchline" : 				{
					"destination" : [ "obj-54", 0 ],
					"source" : [ "obj-45", 0 ]
				}

			}
, 			{
				"patchline" : 				{
					"destination" : [ "obj-13", 0 ],
					"midpoints" : [ 402.249996185302734, 314.5, 526.5, 314.5 ],
					"order" : 0,
					"source" : [ "obj-46", 3 ]
				}

			}
, 			{
				"patchline" : 				{
					"destination" : [ "obj-9", 3 ],
					"order" : 1,
					"source" : [ "obj-46", 3 ]
				}

			}
, 			{
				"patchline" : 				{
					"destination" : [ "obj-9", 2 ],
					"source" : [ "obj-46", 2 ]
				}

			}
, 			{
				"patchline" : 				{
					"destination" : [ "obj-9", 1 ],
					"source" : [ "obj-46", 1 ]
				}

			}
, 			{
				"patchline" : 				{
					"destination" : [ "obj-9", 0 ],
					"source" : [ "obj-46", 0 ]
				}

			}
, 			{
				"patchline" : 				{
					"destination" : [ "obj-9", 0 ],
					"midpoints" : [ 211.0, 314.5, 229.5, 314.5 ],
					"source" : [ "obj-49", 0 ]
				}

			}
, 			{
				"patchline" : 				{
					"destination" : [ "obj-8", 0 ],
					"source" : [ "obj-5", 0 ]
				}

			}
, 			{
				"patchline" : 				{
					"destination" : [ "obj-53", 0 ],
					"source" : [ "obj-51", 0 ]
				}

			}
, 			{
				"patchline" : 				{
					"destination" : [ "obj-57", 3 ],
					"source" : [ "obj-55", 3 ]
				}

			}
, 			{
				"patchline" : 				{
					"destination" : [ "obj-57", 2 ],
					"source" : [ "obj-55", 2 ]
				}

			}
, 			{
				"patchline" : 				{
					"destination" : [ "obj-57", 1 ],
					"source" : [ "obj-55", 1 ]
				}

			}
, 			{
				"patchline" : 				{
					"destination" : [ "obj-57", 0 ],
					"source" : [ "obj-55", 0 ]
				}

			}
, 			{
				"patchline" : 				{
					"destination" : [ "obj-102", 0 ],
					"source" : [ "obj-57", 0 ]
				}

			}
, 			{
				"patchline" : 				{
					"destination" : [ "obj-25", 0 ],
					"source" : [ "obj-59", 0 ]
				}

			}
, 			{
				"patchline" : 				{
					"destination" : [ "obj-62", 0 ],
					"source" : [ "obj-59", 2 ]
				}

			}
, 			{
				"patchline" : 				{
					"destination" : [ "obj-49", 0 ],
					"source" : [ "obj-60", 0 ]
				}

			}
, 			{
				"patchline" : 				{
					"destination" : [ "obj-59", 0 ],
					"source" : [ "obj-61", 0 ]
				}

			}
, 			{
				"patchline" : 				{
					"destination" : [ "obj-17", 1 ],
					"order" : 1,
					"source" : [ "obj-62", 1 ]
				}

			}
, 			{
				"patchline" : 				{
					"destination" : [ "obj-45", 0 ],
					"order" : 0,
					"source" : [ "obj-62", 1 ]
				}

			}
, 			{
				"patchline" : 				{
					"destination" : [ "obj-63", 1 ],
					"source" : [ "obj-62", 2 ]
				}

			}
, 			{
				"patchline" : 				{
					"destination" : [ "obj-63", 0 ],
					"order" : 2,
					"source" : [ "obj-62", 1 ]
				}

			}
, 			{
				"patchline" : 				{
					"destination" : [ "obj-65", 0 ],
					"source" : [ "obj-62", 0 ]
				}

			}
, 			{
				"patchline" : 				{
					"destination" : [ "obj-66", 0 ],
					"source" : [ "obj-65", 0 ]
				}

			}
, 			{
				"patchline" : 				{
					"destination" : [ "obj-55", 0 ],
					"source" : [ "obj-67", 0 ]
				}

			}
, 			{
				"patchline" : 				{
					"destination" : [ "obj-22", 0 ],
					"source" : [ "obj-68", 0 ]
				}

			}
, 			{
				"patchline" : 				{
					"destination" : [ "obj-78", 0 ],
					"source" : [ "obj-70", 0 ]
				}

			}
, 			{
				"patchline" : 				{
					"destination" : [ "obj-74", 0 ],
					"source" : [ "obj-73", 0 ]
				}

			}
, 			{
				"patchline" : 				{
					"destination" : [ "obj-75", 0 ],
					"source" : [ "obj-74", 0 ]
				}

			}
, 			{
				"patchline" : 				{
					"destination" : [ "obj-30", 0 ],
					"order" : 1,
					"source" : [ "obj-75", 0 ]
				}

			}
, 			{
				"patchline" : 				{
					"destination" : [ "obj-31", 0 ],
					"order" : 0,
					"source" : [ "obj-75", 0 ]
				}

			}
, 			{
				"patchline" : 				{
					"destination" : [ "obj-99", 0 ],
					"order" : 2,
					"source" : [ "obj-75", 0 ]
				}

			}
, 			{
				"patchline" : 				{
					"destination" : [ "obj-73", 1 ],
					"source" : [ "obj-76", 0 ]
				}

			}
, 			{
				"patchline" : 				{
					"destination" : [ "obj-100", 0 ],
					"order" : 0,
					"source" : [ "obj-77", 0 ]
				}

			}
, 			{
				"patchline" : 				{
					"destination" : [ "obj-24", 0 ],
					"order" : 1,
					"source" : [ "obj-77", 0 ]
				}

			}
, 			{
				"patchline" : 				{
					"destination" : [ "obj-99", 0 ],
					"source" : [ "obj-78", 0 ]
				}

			}
, 			{
				"patchline" : 				{
					"destination" : [ "obj-86", 0 ],
					"source" : [ "obj-79", 0 ]
				}

			}
, 			{
				"patchline" : 				{
					"destination" : [ "obj-35", 0 ],
					"source" : [ "obj-8", 0 ]
				}

			}
, 			{
				"patchline" : 				{
					"destination" : [ "obj-87", 0 ],
					"source" : [ "obj-80", 0 ]
				}

			}
, 			{
				"patchline" : 				{
					"destination" : [ "obj-82", 1 ],
					"source" : [ "obj-81", 0 ]
				}

			}
, 			{
				"patchline" : 				{
					"destination" : [ "obj-85", 0 ],
					"source" : [ "obj-82", 0 ]
				}

			}
, 			{
				"patchline" : 				{
					"destination" : [ "obj-82", 2 ],
					"source" : [ "obj-83", 0 ]
				}

			}
, 			{
				"patchline" : 				{
					"destination" : [ "obj-84", 0 ],
					"source" : [ "obj-85", 0 ]
				}

			}
, 			{
				"patchline" : 				{
					"destination" : [ "obj-53", 0 ],
					"source" : [ "obj-86", 0 ]
				}

			}
, 			{
				"patchline" : 				{
					"destination" : [ "obj-53", 0 ],
					"source" : [ "obj-87", 0 ]
				}

			}
, 			{
				"patchline" : 				{
					"destination" : [ "obj-53", 0 ],
					"source" : [ "obj-89", 0 ]
				}

			}
, 			{
				"patchline" : 				{
					"destination" : [ "obj-10", 0 ],
					"order" : 0,
					"source" : [ "obj-9", 0 ]
				}

			}
, 			{
				"patchline" : 				{
					"destination" : [ "obj-102", 0 ],
					"source" : [ "obj-9", 6 ]
				}

			}
, 			{
				"patchline" : 				{
					"destination" : [ "obj-17", 0 ],
					"source" : [ "obj-9", 5 ]
				}

			}
, 			{
				"patchline" : 				{
					"destination" : [ "obj-21", 0 ],
					"order" : 0,
					"source" : [ "obj-9", 1 ]
				}

			}
, 			{
				"patchline" : 				{
					"destination" : [ "obj-32", 0 ],
					"order" : 0,
					"source" : [ "obj-9", 4 ]
				}

			}
, 			{
				"patchline" : 				{
					"destination" : [ "obj-34", 5 ],
					"order" : 1,
					"source" : [ "obj-9", 4 ]
				}

			}
, 			{
				"patchline" : 				{
					"destination" : [ "obj-34", 4 ],
					"order" : 1,
					"source" : [ "obj-9", 3 ]
				}

			}
, 			{
				"patchline" : 				{
					"destination" : [ "obj-34", 3 ],
					"order" : 1,
					"source" : [ "obj-9", 2 ]
				}

			}
, 			{
				"patchline" : 				{
					"destination" : [ "obj-34", 2 ],
					"midpoints" : [ 258.291666666666686, 344.5, 264.479998779296864, 344.5 ],
					"order" : 1,
					"source" : [ "obj-9", 1 ]
				}

			}
, 			{
				"patchline" : 				{
					"destination" : [ "obj-34", 1 ],
					"midpoints" : [ 229.5, 344.5, 241.739999389648432, 344.5 ],
					"order" : 1,
					"source" : [ "obj-9", 0 ]
				}

			}
, 			{
				"patchline" : 				{
					"destination" : [ "obj-38", 0 ],
					"order" : 0,
					"source" : [ "obj-9", 3 ]
				}

			}
, 			{
				"patchline" : 				{
					"destination" : [ "obj-43", 0 ],
					"order" : 0,
					"source" : [ "obj-9", 2 ]
				}

			}
, 			{
				"patchline" : 				{
					"destination" : [ "obj-91", 0 ],
					"source" : [ "obj-90", 1 ]
				}

			}
, 			{
				"patchline" : 				{
					"destination" : [ "obj-100", 1 ],
					"source" : [ "obj-91", 1 ]
				}

			}
, 			{
				"patchline" : 				{
					"destination" : [ "obj-37", 0 ],
					"midpoints" : [ 99.5, 54.5, 47.5, 54.5 ],
					"source" : [ "obj-92", 0 ]
				}

			}
, 			{
				"patchline" : 				{
					"destination" : [ "obj-42", 0 ],
					"source" : [ "obj-92", 1 ]
				}

			}
, 			{
				"patchline" : 				{
					"destination" : [ "obj-82", 0 ],
					"source" : [ "obj-92", 2 ]
				}

			}
, 			{
				"patchline" : 				{
					"destination" : [ "obj-94", 0 ],
					"source" : [ "obj-93", 0 ]
				}

			}
, 			{
				"patchline" : 				{
					"destination" : [ "obj-1", 0 ],
					"order" : 0,
					"source" : [ "obj-94", 0 ]
				}

			}
, 			{
				"patchline" : 				{
					"destination" : [ "obj-57", 0 ],
					"order" : 1,
					"source" : [ "obj-94", 0 ]
				}

			}
, 			{
				"patchline" : 				{
					"destination" : [ "obj-9", 0 ],
					"order" : 2,
					"source" : [ "obj-94", 0 ]
				}

			}
, 			{
				"patchline" : 				{
					"destination" : [ "obj-92", 0 ],
					"order" : 3,
					"source" : [ "obj-94", 0 ]
				}

			}
, 			{
				"patchline" : 				{
					"destination" : [ "obj-1", 0 ],
					"order" : 0,
					"source" : [ "obj-95", 0 ]
				}

			}
, 			{
				"patchline" : 				{
					"destination" : [ "obj-57", 0 ],
					"order" : 1,
					"source" : [ "obj-95", 0 ]
				}

			}
, 			{
				"patchline" : 				{
					"destination" : [ "obj-9", 0 ],
					"order" : 2,
					"source" : [ "obj-95", 0 ]
				}

			}
, 			{
				"patchline" : 				{
					"destination" : [ "obj-92", 0 ],
					"order" : 3,
					"source" : [ "obj-95", 0 ]
				}

			}
, 			{
				"patchline" : 				{
					"destination" : [ "obj-95", 0 ],
					"source" : [ "obj-96", 0 ]
				}

			}
, 			{
				"patchline" : 				{
					"destination" : [ "obj-99", 0 ],
					"source" : [ "obj-98", 0 ]
				}

			}
 ],
		"dependency_cache" : [ 			{
				"name" : "rhythm.gendsp",
				"bootpath" : "~/Google Drive/[Tools]/[Max]/[Projects]/Amanuensis",
				"patcherrelativepath" : ".",
				"type" : "gDSP",
				"implicit" : 1
			}
, 			{
				"name" : "log.genexpr",
				"bootpath" : "~/Google Drive/[Tools]/[Max]/[Projects]/Amanuensis",
				"patcherrelativepath" : ".",
				"type" : "GenX",
				"implicit" : 1
			}
, 			{
				"name" : "logExternally(Frame+Phasor).maxpat",
				"bootpath" : "~/Google Drive/[Tools]/[Max]/[Projects]/Amanuensis",
				"patcherrelativepath" : ".",
				"type" : "JSON",
				"implicit" : 1
			}
, 			{
				"name" : "recitation.gendsp",
				"bootpath" : "~/Google Drive/[Tools]/[Max]/[Projects]/Amanuensis",
				"patcherrelativepath" : ".",
				"type" : "gDSP",
				"implicit" : 1
			}
, 			{
				"name" : "gen.log.maxpat",
				"bootpath" : "~/Google Drive/[Tools]/[Max]/[Projects]/Amanuensis",
				"patcherrelativepath" : ".",
				"type" : "JSON",
				"implicit" : 1
			}
 ],
		"autosave" : 0,
		"styles" : [ 			{
				"name" : "Custom Default",
				"default" : 				{
					"patchlinecolor" : [ 0.0, 0.0, 0.0, 0.9 ]
				}
,
				"parentstyle" : "Custom Default-2",
				"multi" : 0
			}
, 			{
				"name" : "Custom Default Regular",
				"newobj" : 				{
					"fontsize" : [ 10.0 ],
					"fontname" : [ "Arial" ]
				}
,
				"message" : 				{
					"fontsize" : [ 10.0 ],
					"fontname" : [ "Arial" ]
				}
,
				"parentstyle" : "",
				"multi" : 0
			}
, 			{
				"name" : "Custom Default Regular-1",
				"newobj" : 				{
					"fontsize" : [ 10.0 ],
					"fontname" : [ "Arial" ]
				}
,
				"message" : 				{
					"fontsize" : [ 10.0 ],
					"fontname" : [ "Arial" ]
				}
,
				"parentstyle" : "",
				"multi" : 1
			}
, 			{
				"name" : "Custom Default Regular-1-1",
				"newobj" : 				{
					"fontsize" : [ 10.0 ],
					"fontname" : [ "Arial" ]
				}
,
				"message" : 				{
					"fontsize" : [ 10.0 ],
					"fontname" : [ "Arial" ]
				}
,
				"parentstyle" : "",
				"multi" : 0
			}
, 			{
				"name" : "Custom Default Regular-1-1-1",
				"newobj" : 				{
					"fontsize" : [ 10.0 ],
					"fontname" : [ "Arial" ]
				}
,
				"message" : 				{
					"fontsize" : [ 10.0 ],
					"fontname" : [ "Arial" ]
				}
,
				"parentstyle" : "",
				"multi" : 1
			}
, 			{
				"name" : "Custom Default Regular-1-1-2",
				"newobj" : 				{
					"fontsize" : [ 10.0 ],
					"fontname" : [ "Arial" ]
				}
,
				"message" : 				{
					"fontsize" : [ 10.0 ],
					"fontname" : [ "Arial" ]
				}
,
				"parentstyle" : "",
				"multi" : 1
			}
, 			{
				"name" : "Custom Default Regular-1-2",
				"newobj" : 				{
					"fontsize" : [ 10.0 ],
					"fontname" : [ "Arial" ]
				}
,
				"message" : 				{
					"fontsize" : [ 10.0 ],
					"fontname" : [ "Arial" ]
				}
,
				"parentstyle" : "",
				"multi" : 0
			}
, 			{
				"name" : "Custom Default Regular-1-2-1",
				"newobj" : 				{
					"fontsize" : [ 10.0 ],
					"fontname" : [ "Arial" ]
				}
,
				"message" : 				{
					"fontsize" : [ 10.0 ],
					"fontname" : [ "Arial" ]
				}
,
				"parentstyle" : "",
				"multi" : 1
			}
, 			{
				"name" : "Custom Default Regular-2",
				"newobj" : 				{
					"fontsize" : [ 10.0 ],
					"fontname" : [ "Arial" ]
				}
,
				"message" : 				{
					"fontsize" : [ 10.0 ],
					"fontname" : [ "Arial" ]
				}
,
				"parentstyle" : "",
				"multi" : 1
			}
, 			{
				"name" : "Custom Default Regular-3",
				"newobj" : 				{
					"fontsize" : [ 10.0 ],
					"fontname" : [ "Arial" ]
				}
,
				"message" : 				{
					"fontsize" : [ 10.0 ],
					"fontname" : [ "Arial" ]
				}
,
				"parentstyle" : "",
				"multi" : 1
			}
, 			{
				"name" : "Custom Default Regular-4",
				"newobj" : 				{
					"fontsize" : [ 10.0 ],
					"fontname" : [ "Arial" ]
				}
,
				"message" : 				{
					"fontsize" : [ 10.0 ],
					"fontname" : [ "Arial" ]
				}
,
				"parentstyle" : "",
				"multi" : 1
			}
, 			{
				"name" : "Custom Default Regular-5",
				"newobj" : 				{
					"fontsize" : [ 10.0 ],
					"fontname" : [ "Arial" ]
				}
,
				"message" : 				{
					"fontsize" : [ 10.0 ],
					"fontname" : [ "Arial" ]
				}
,
				"parentstyle" : "",
				"multi" : 1
			}
, 			{
				"name" : "Custom Default Regular-6",
				"newobj" : 				{
					"fontsize" : [ 10.0 ],
					"fontname" : [ "Arial" ]
				}
,
				"message" : 				{
					"fontsize" : [ 10.0 ],
					"fontname" : [ "Arial" ]
				}
,
				"parentstyle" : "",
				"multi" : 1
			}
, 			{
				"name" : "Custom Default Regular-6-1",
				"newobj" : 				{
					"fontsize" : [ 10.0 ],
					"fontname" : [ "Arial" ]
				}
,
				"message" : 				{
					"fontsize" : [ 10.0 ],
					"fontname" : [ "Arial" ]
				}
,
				"parentstyle" : "",
				"multi" : 0
			}
, 			{
				"name" : "Custom Default Regular-6-1-1",
				"newobj" : 				{
					"fontsize" : [ 10.0 ],
					"fontname" : [ "Arial" ]
				}
,
				"message" : 				{
					"fontsize" : [ 10.0 ],
					"fontname" : [ "Arial" ]
				}
,
				"parentstyle" : "",
				"multi" : 1
			}
, 			{
				"name" : "Custom Default Regular-7",
				"newobj" : 				{
					"fontsize" : [ 10.0 ],
					"fontname" : [ "Arial" ]
				}
,
				"message" : 				{
					"fontsize" : [ 10.0 ],
					"fontname" : [ "Arial" ]
				}
,
				"parentstyle" : "",
				"multi" : 1
			}
, 			{
				"name" : "Custom Default Regular-8",
				"newobj" : 				{
					"fontsize" : [ 10.0 ],
					"fontname" : [ "Arial" ]
				}
,
				"message" : 				{
					"fontsize" : [ 10.0 ],
					"fontname" : [ "Arial" ]
				}
,
				"parentstyle" : "",
				"multi" : 1
			}
, 			{
				"name" : "Custom Default-1",
				"newobj" : 				{
					"fontsize" : [ 10.0 ],
					"bgcolor" : [ 0.0, 0.0, 0.0, 1.0 ],
					"fontface" : [ 1 ],
					"textcolor_inverse" : [ 1.0, 1.0, 1.0, 1.0 ]
				}
,
				"message" : 				{
					"fontsize" : [ 10.0 ],
					"fontface" : [ 1 ],
					"textcolor_inverse" : [ 1.0, 1.0, 1.0, 1.0 ]
				}
,
				"parentstyle" : "",
				"multi" : 0
			}
, 			{
				"name" : "Custom Default-1-1",
				"default" : 				{
					"patchlinecolor" : [ 0.0, 0.0, 0.0, 0.9 ]
				}
,
				"parentstyle" : "Custom Default-2",
				"multi" : 0
			}
, 			{
				"name" : "Custom Default-1-1-1",
				"newobj" : 				{
					"fontsize" : [ 10.0 ],
					"bgcolor" : [ 0.0, 0.0, 0.0, 1.0 ],
					"fontface" : [ 1 ],
					"textcolor_inverse" : [ 1.0, 1.0, 1.0, 1.0 ]
				}
,
				"message" : 				{
					"fontsize" : [ 10.0 ],
					"fontface" : [ 1 ],
					"textcolor_inverse" : [ 1.0, 1.0, 1.0, 1.0 ]
				}
,
				"parentstyle" : "",
				"multi" : 0
			}
, 			{
				"name" : "Custom Default-1-1-1-1",
				"default" : 				{
					"patchlinecolor" : [ 0.0, 0.0, 0.0, 0.9 ]
				}
,
				"parentstyle" : "Custom Default-2",
				"multi" : 0
			}
, 			{
				"name" : "Custom Default-1-1-1-1-1",
				"newobj" : 				{
					"fontsize" : [ 10.0 ],
					"bgcolor" : [ 0.0, 0.0, 0.0, 1.0 ],
					"fontface" : [ 1 ],
					"textcolor_inverse" : [ 1.0, 1.0, 1.0, 1.0 ]
				}
,
				"message" : 				{
					"fontsize" : [ 10.0 ],
					"fontface" : [ 1 ],
					"textcolor_inverse" : [ 1.0, 1.0, 1.0, 1.0 ]
				}
,
				"parentstyle" : "",
				"multi" : 0
			}
, 			{
				"name" : "Custom Default-1-1-1-1-2",
				"newobj" : 				{
					"fontsize" : [ 10.0 ],
					"bgcolor" : [ 0.0, 0.0, 0.0, 1.0 ],
					"fontface" : [ 1 ],
					"textcolor_inverse" : [ 1.0, 1.0, 1.0, 1.0 ]
				}
,
				"message" : 				{
					"fontsize" : [ 10.0 ],
					"fontface" : [ 1 ],
					"textcolor_inverse" : [ 1.0, 1.0, 1.0, 1.0 ]
				}
,
				"parentstyle" : "",
				"multi" : 0
			}
, 			{
				"name" : "Custom Default-1-1-1-2",
				"newobj" : 				{
					"fontsize" : [ 10.0 ],
					"bgcolor" : [ 0.0, 0.0, 0.0, 1.0 ],
					"fontface" : [ 1 ],
					"textcolor_inverse" : [ 1.0, 1.0, 1.0, 1.0 ]
				}
,
				"message" : 				{
					"fontsize" : [ 10.0 ],
					"fontface" : [ 1 ],
					"textcolor_inverse" : [ 1.0, 1.0, 1.0, 1.0 ]
				}
,
				"parentstyle" : "",
				"multi" : 0
			}
, 			{
				"name" : "Custom Default-1-1-1-3",
				"newobj" : 				{
					"fontsize" : [ 10.0 ],
					"bgcolor" : [ 0.0, 0.0, 0.0, 1.0 ],
					"fontface" : [ 1 ],
					"textcolor_inverse" : [ 1.0, 1.0, 1.0, 1.0 ]
				}
,
				"message" : 				{
					"fontsize" : [ 10.0 ],
					"fontface" : [ 1 ],
					"textcolor_inverse" : [ 1.0, 1.0, 1.0, 1.0 ]
				}
,
				"parentstyle" : "",
				"multi" : 0
			}
, 			{
				"name" : "Custom Default-1-1-1-4",
				"default" : 				{
					"patchlinecolor" : [ 0.0, 0.0, 0.0, 0.9 ]
				}
,
				"parentstyle" : "Custom Default-2",
				"multi" : 0
			}
, 			{
				"name" : "Custom Default-1-1-1-4-1",
				"newobj" : 				{
					"fontsize" : [ 10.0 ],
					"bgcolor" : [ 0.0, 0.0, 0.0, 1.0 ],
					"fontface" : [ 1 ],
					"textcolor_inverse" : [ 1.0, 1.0, 1.0, 1.0 ]
				}
,
				"message" : 				{
					"fontsize" : [ 10.0 ],
					"fontface" : [ 1 ],
					"textcolor_inverse" : [ 1.0, 1.0, 1.0, 1.0 ]
				}
,
				"parentstyle" : "",
				"multi" : 0
			}
, 			{
				"name" : "Custom Default-1-1-2",
				"newobj" : 				{
					"fontsize" : [ 10.0 ],
					"bgcolor" : [ 0.0, 0.0, 0.0, 1.0 ],
					"fontface" : [ 1 ],
					"textcolor_inverse" : [ 1.0, 1.0, 1.0, 1.0 ]
				}
,
				"message" : 				{
					"fontsize" : [ 10.0 ],
					"fontface" : [ 1 ],
					"textcolor_inverse" : [ 1.0, 1.0, 1.0, 1.0 ]
				}
,
				"parentstyle" : "",
				"multi" : 0
			}
, 			{
				"name" : "Custom Default-1-1-2-1",
				"default" : 				{
					"patchlinecolor" : [ 0.0, 0.0, 0.0, 0.9 ]
				}
,
				"parentstyle" : "Custom Default-2",
				"multi" : 0
			}
, 			{
				"name" : "Custom Default-1-1-2-2",
				"default" : 				{
					"patchlinecolor" : [ 0.0, 0.0, 0.0, 0.9 ]
				}
,
				"parentstyle" : "Custom Default-2",
				"multi" : 0
			}
, 			{
				"name" : "Custom Default-1-1-3",
				"default" : 				{
					"patchlinecolor" : [ 0.0, 0.0, 0.0, 0.9 ]
				}
,
				"parentstyle" : "Custom Default-2",
				"multi" : 0
			}
, 			{
				"name" : "Custom Default-1-1-4",
				"newobj" : 				{
					"fontsize" : [ 10.0 ],
					"bgcolor" : [ 0.0, 0.0, 0.0, 1.0 ],
					"fontface" : [ 1 ],
					"textcolor_inverse" : [ 1.0, 1.0, 1.0, 1.0 ]
				}
,
				"message" : 				{
					"fontsize" : [ 10.0 ],
					"fontface" : [ 1 ],
					"textcolor_inverse" : [ 1.0, 1.0, 1.0, 1.0 ]
				}
,
				"parentstyle" : "",
				"multi" : 0
			}
, 			{
				"name" : "Custom Default-1-1-4-1",
				"default" : 				{
					"patchlinecolor" : [ 0.0, 0.0, 0.0, 0.9 ]
				}
,
				"parentstyle" : "Custom Default-2",
				"multi" : 0
			}
, 			{
				"name" : "Custom Default-1-2",
				"newobj" : 				{
					"fontsize" : [ 10.0 ],
					"bgcolor" : [ 0.0, 0.0, 0.0, 1.0 ],
					"fontface" : [ 1 ],
					"textcolor_inverse" : [ 1.0, 1.0, 1.0, 1.0 ]
				}
,
				"message" : 				{
					"fontsize" : [ 10.0 ],
					"fontface" : [ 1 ],
					"textcolor_inverse" : [ 1.0, 1.0, 1.0, 1.0 ]
				}
,
				"parentstyle" : "",
				"multi" : 0
			}
, 			{
				"name" : "Custom Default-1-3",
				"default" : 				{
					"patchlinecolor" : [ 0.0, 0.0, 0.0, 0.9 ]
				}
,
				"parentstyle" : "Custom Default-2",
				"multi" : 0
			}
, 			{
				"name" : "Custom Default-1-3-1",
				"newobj" : 				{
					"fontsize" : [ 10.0 ],
					"bgcolor" : [ 0.0, 0.0, 0.0, 1.0 ],
					"fontface" : [ 1 ],
					"textcolor_inverse" : [ 1.0, 1.0, 1.0, 1.0 ]
				}
,
				"message" : 				{
					"fontsize" : [ 10.0 ],
					"fontface" : [ 1 ],
					"textcolor_inverse" : [ 1.0, 1.0, 1.0, 1.0 ]
				}
,
				"parentstyle" : "",
				"multi" : 0
			}
, 			{
				"name" : "Custom Default-1-3-2",
				"newobj" : 				{
					"fontsize" : [ 10.0 ],
					"bgcolor" : [ 0.0, 0.0, 0.0, 1.0 ],
					"fontface" : [ 1 ],
					"textcolor_inverse" : [ 1.0, 1.0, 1.0, 1.0 ]
				}
,
				"message" : 				{
					"fontsize" : [ 10.0 ],
					"fontface" : [ 1 ],
					"textcolor_inverse" : [ 1.0, 1.0, 1.0, 1.0 ]
				}
,
				"parentstyle" : "",
				"multi" : 0
			}
, 			{
				"name" : "Custom Default-1-4",
				"newobj" : 				{
					"fontsize" : [ 10.0 ],
					"bgcolor" : [ 0.0, 0.0, 0.0, 1.0 ],
					"fontface" : [ 1 ],
					"textcolor_inverse" : [ 1.0, 1.0, 1.0, 1.0 ]
				}
,
				"message" : 				{
					"fontsize" : [ 10.0 ],
					"fontface" : [ 1 ],
					"textcolor_inverse" : [ 1.0, 1.0, 1.0, 1.0 ]
				}
,
				"parentstyle" : "",
				"multi" : 0
			}
, 			{
				"name" : "Custom Default-1-5",
				"default" : 				{
					"patchlinecolor" : [ 0.0, 0.0, 0.0, 0.9 ]
				}
,
				"parentstyle" : "Custom Default-2",
				"multi" : 0
			}
, 			{
				"name" : "Custom Default-1-5-1",
				"newobj" : 				{
					"fontsize" : [ 10.0 ],
					"bgcolor" : [ 0.0, 0.0, 0.0, 1.0 ],
					"fontface" : [ 1 ],
					"textcolor_inverse" : [ 1.0, 1.0, 1.0, 1.0 ]
				}
,
				"message" : 				{
					"fontsize" : [ 10.0 ],
					"fontface" : [ 1 ],
					"textcolor_inverse" : [ 1.0, 1.0, 1.0, 1.0 ]
				}
,
				"parentstyle" : "",
				"multi" : 0
			}
, 			{
				"name" : "Custom Default-10",
				"default" : 				{
					"patchlinecolor" : [ 0.0, 0.0, 0.0, 0.9 ]
				}
,
				"parentstyle" : "Custom Default-2",
				"multi" : 0
			}
, 			{
				"name" : "Custom Default-11",
				"default" : 				{
					"fontsize" : [ 10.0 ],
					"bgcolor" : [ 0.0, 0.0, 0.0, 1.0 ],
					"fontface" : [ 1 ],
					"patchlinecolor" : [ 0.0, 0.0, 0.0, 0.9 ]
				}
,
				"parentstyle" : "",
				"multi" : 0
			}
, 			{
				"name" : "Custom Default-11-1",
				"default" : 				{
					"patchlinecolor" : [ 0.0, 0.0, 0.0, 0.9 ]
				}
,
				"parentstyle" : "Custom Default-2",
				"multi" : 0
			}
, 			{
				"name" : "Custom Default-2",
				"newobj" : 				{
					"fontsize" : [ 10.0 ],
					"bgcolor" : [ 0.0, 0.0, 0.0, 1.0 ],
					"fontface" : [ 1 ],
					"textcolor_inverse" : [ 1.0, 1.0, 1.0, 1.0 ]
				}
,
				"message" : 				{
					"fontsize" : [ 10.0 ],
					"fontface" : [ 1 ],
					"textcolor_inverse" : [ 1.0, 1.0, 1.0, 1.0 ]
				}
,
				"parentstyle" : "",
				"multi" : 0
			}
, 			{
				"name" : "Custom Default-3",
				"default" : 				{
					"fontsize" : [ 10.0 ],
					"bgcolor" : [ 0.0, 0.0, 0.0, 1.0 ],
					"fontface" : [ 1 ],
					"patchlinecolor" : [ 0.0, 0.0, 0.0, 0.9 ]
				}
,
				"parentstyle" : "",
				"multi" : 0
			}
, 			{
				"name" : "Custom Default-4",
				"default" : 				{
					"fontsize" : [ 10.0 ],
					"bgcolor" : [ 0.0, 0.0, 0.0, 1.0 ],
					"fontface" : [ 1 ],
					"patchlinecolor" : [ 0.0, 0.0, 0.0, 0.9 ]
				}
,
				"parentstyle" : "",
				"multi" : 0
			}
, 			{
				"name" : "Custom Default-5",
				"default" : 				{
					"fontsize" : [ 10.0 ],
					"bgcolor" : [ 0.0, 0.0, 0.0, 1.0 ],
					"fontface" : [ 1 ],
					"patchlinecolor" : [ 0.0, 0.0, 0.0, 0.9 ]
				}
,
				"parentstyle" : "",
				"multi" : 0
			}
, 			{
				"name" : "Custom Default-6",
				"default" : 				{
					"fontsize" : [ 10.0 ],
					"bgcolor" : [ 0.0, 0.0, 0.0, 1.0 ],
					"fontface" : [ 1 ],
					"patchlinecolor" : [ 0.0, 0.0, 0.0, 0.9 ]
				}
,
				"parentstyle" : "",
				"multi" : 0
			}
, 			{
				"name" : "Custom Default-7",
				"default" : 				{
					"fontsize" : [ 10.0 ],
					"bgcolor" : [ 0.0, 0.0, 0.0, 1.0 ],
					"fontface" : [ 1 ],
					"patchlinecolor" : [ 0.0, 0.0, 0.0, 0.9 ]
				}
,
				"parentstyle" : "",
				"multi" : 0
			}
, 			{
				"name" : "Custom Default-8",
				"default" : 				{
					"patchlinecolor" : [ 0.0, 0.0, 0.0, 0.9 ]
				}
,
				"parentstyle" : "Custom Default-2",
				"multi" : 0
			}
, 			{
				"name" : "Custom Default-8-1",
				"default" : 				{
					"fontsize" : [ 10.0 ],
					"bgcolor" : [ 0.0, 0.0, 0.0, 1.0 ],
					"fontface" : [ 1 ],
					"patchlinecolor" : [ 0.0, 0.0, 0.0, 0.9 ]
				}
,
				"parentstyle" : "",
				"multi" : 0
			}
, 			{
				"name" : "Custom Default-8-2",
				"default" : 				{
					"fontsize" : [ 10.0 ],
					"bgcolor" : [ 0.0, 0.0, 0.0, 1.0 ],
					"fontface" : [ 1 ],
					"patchlinecolor" : [ 0.0, 0.0, 0.0, 0.9 ]
				}
,
				"parentstyle" : "",
				"multi" : 0
			}
, 			{
				"name" : "Custom Default-9",
				"default" : 				{
					"fontsize" : [ 10.0 ],
					"bgcolor" : [ 0.0, 0.0, 0.0, 1.0 ],
					"fontface" : [ 1 ],
					"patchlinecolor" : [ 0.0, 0.0, 0.0, 0.9 ]
				}
,
				"parentstyle" : "",
				"multi" : 0
			}
, 			{
				"name" : "Custom Default-9-1",
				"default" : 				{
					"patchlinecolor" : [ 0.0, 0.0, 0.0, 0.9 ]
				}
,
				"parentstyle" : "Custom Default-2",
				"multi" : 0
			}
, 			{
				"name" : "Custom Default-9-2",
				"default" : 				{
					"patchlinecolor" : [ 0.0, 0.0, 0.0, 0.9 ]
				}
,
				"parentstyle" : "Custom Default-2",
				"multi" : 0
			}
 ],
		"bgfillcolor_type" : "gradient",
		"bgfillcolor_color1" : [ 0.376471, 0.384314, 0.4, 1.0 ],
		"bgfillcolor_color2" : [ 0.290196, 0.309804, 0.301961, 1.0 ],
		"bgfillcolor_color" : [ 0.290196, 0.309804, 0.301961, 1.0 ]
	}

}
