{
	"patcher" : 	{
		"fileversion" : 1,
		"appversion" : 		{
			"major" : 8,
			"minor" : 1,
			"revision" : 1,
			"architecture" : "x64",
			"modernui" : 1
		}
,
		"classnamespace" : "dsp.gen",
		"rect" : [ 42.0, 116.0, 812.0, 586.0 ],
		"bglocked" : 0,
		"openinpresentation" : 0,
		"default_fontsize" : 12.0,
		"default_fontface" : 0,
		"default_fontname" : "Arial",
		"gridonopen" : 1,
		"gridsize" : [ 15.0, 15.0 ],
		"gridsnaponopen" : 1,
		"objectsnaponopen" : 1,
		"statusbarvisible" : 2,
		"toolbarvisible" : 1,
		"lefttoolbarpinned" : 0,
		"toptoolbarpinned" : 0,
		"righttoolbarpinned" : 0,
		"bottomtoolbarpinned" : 0,
		"toolbars_unpinned_last_save" : 0,
		"tallnewobj" : 0,
		"boxanimatetime" : 200,
		"enablehscroll" : 1,
		"enablevscroll" : 1,
		"devicewidth" : 0.0,
		"description" : "",
		"digest" : "",
		"tags" : "",
		"style" : "",
		"subpatcher_template" : "",
		"boxes" : [ 			{
				"box" : 				{
					"id" : "obj-10",
					"maxclass" : "comment",
					"numinlets" : 1,
					"numoutlets" : 0,
					"patching_rect" : [ 209.0, 527.0, 150.0, 20.0 ],
					"text" : " recording ramp end"
				}

			}
, 			{
				"box" : 				{
					"id" : "obj-7",
					"maxclass" : "newobj",
					"numinlets" : 1,
					"numoutlets" : 0,
					"patching_rect" : [ 256.33331298828125, 503.0, 35.0, 22.0 ],
					"text" : "out 3"
				}

			}
, 			{
				"box" : 				{
					"id" : "obj-8",
					"maxclass" : "comment",
					"numinlets" : 1,
					"numoutlets" : 0,
					"patching_rect" : [ 9.0, 516.0, 150.0, 20.0 ],
					"text" : "songStart"
				}

			}
, 			{
				"box" : 				{
					"id" : "obj-6",
					"maxclass" : "newobj",
					"numinlets" : 1,
					"numoutlets" : 0,
					"patching_rect" : [ 11.0, 490.0, 35.0, 22.0 ],
					"text" : "out 2"
				}

			}
, 			{
				"box" : 				{
					"id" : "obj-5",
					"maxclass" : "newobj",
					"numinlets" : 0,
					"numoutlets" : 2,
					"outlettype" : [ "", "" ],
					"patching_rect" : [ 690.0, 32.0, 84.0, 22.0 ],
					"text" : "buffer clicklog"
				}

			}
, 			{
				"box" : 				{
					"id" : "obj-3",
					"maxclass" : "newobj",
					"numinlets" : 0,
					"numoutlets" : 2,
					"outlettype" : [ "", "" ],
					"patching_rect" : [ 705.0, 56.0, 113.0, 22.0 ],
					"text" : "buffer incrementlog"
				}

			}
, 			{
				"box" : 				{
					"id" : "obj-1",
					"maxclass" : "newobj",
					"numinlets" : 0,
					"numoutlets" : 2,
					"outlettype" : [ "", "" ],
					"patching_rect" : [ 807.0, 56.0, 110.0, 22.0 ],
					"text" : "buffer extendedlog"
				}

			}
, 			{
				"box" : 				{
					"id" : "obj-34",
					"maxclass" : "newobj",
					"numinlets" : 0,
					"numoutlets" : 2,
					"outlettype" : [ "", "" ],
					"patching_rect" : [ 807.0, 29.0, 96.0, 22.0 ],
					"text" : "buffer steadylog"
				}

			}
, 			{
				"box" : 				{
					"id" : "obj-19",
					"maxclass" : "newobj",
					"numinlets" : 0,
					"numoutlets" : 1,
					"outlettype" : [ "" ],
					"patching_rect" : [ 557.333374000000049, 97.0, 30.0, 22.0 ],
					"text" : "in 3"
				}

			}
, 			{
				"box" : 				{
					"id" : "obj-32",
					"maxclass" : "comment",
					"numinlets" : 1,
					"numoutlets" : 0,
					"patching_rect" : [ 383.5, 535.0, 57.0, 20.0 ],
					"text" : "songEnd"
				}

			}
, 			{
				"box" : 				{
					"id" : "obj-30",
					"maxclass" : "newobj",
					"numinlets" : 1,
					"numoutlets" : 0,
					"patching_rect" : [ 393.5, 508.0, 37.0, 22.0 ],
					"text" : "out 4"
				}

			}
, 			{
				"box" : 				{
					"id" : "obj-45",
					"maxclass" : "comment",
					"numinlets" : 1,
					"numoutlets" : 0,
					"patching_rect" : [ 545.8333740234375, 539.0, 53.0, 20.0 ],
					"text" : "phasor~"
				}

			}
, 			{
				"box" : 				{
					"id" : "obj-55",
					"maxclass" : "newobj",
					"numinlets" : 1,
					"numoutlets" : 0,
					"patching_rect" : [ 545.8333740234375, 512.0, 37.0, 22.0 ],
					"text" : "out 6"
				}

			}
, 			{
				"box" : 				{
					"id" : "obj-24",
					"maxclass" : "newobj",
					"numinlets" : 0,
					"numoutlets" : 1,
					"outlettype" : [ "" ],
					"patching_rect" : [ 371.0, 100.25, 30.0, 22.0 ],
					"text" : "in 2"
				}

			}
, 			{
				"box" : 				{
					"code" : "require(\"log\");\r\n\r\nBuffer stats(\"stats\");\r\nBuffer beats(\"beats\");\r\nBuffer imported(\"imported\");\r\nBuffer pcf(\"pcf\");\r\nBuffer backing_lock_beat(\"backing_lock_beat\");\r\nBuffer play_ramp(\"play_ramp\");\r\nBuffer loop_points(\"loop_points\");\r\nBuffer comping(\"comping\");\r\nBuffer restart(\"restart\");\r\nBuffer starting_frame(\"starting_frame\");\r\nBuffer unlocked_start(\"unlocked_start\");\r\nBuffer song(\"song\");\r\nParam tolerance(9);\r\nParam wake(8000);\r\nParam backing_ms(0);\r\nParam loop(0);\r\nParam lead(0);\r\nHistory base(1);\r\nHistory ramp(0);\r\nHistory rec_ramp(0);\r\n//ramp should really just be in terms of elapsed, but it's working and it's tight, so whatever.\r\n//Also, combine ramp and rec_ramp\r\nlock = stats.peek(10);\r\nif(change(in2 != 0) == 1) {\t//the moment a backing track starts\r\n    now = stats.peek(0);\t\t\t\t\t\t\t\r\n\tpoke(unlocked_start, now, 0);\r\n}\r\n//Upon lock, start the ramp with a jump accounting for the progression through\r\n//a backing track if present. Not necessary when importing because the ramp\r\n//starts up by default\r\nif(change(lock) == 1) {\t//not sure why but this can't be inside if(lock)\r\n    now = stats.peek(0);\t\t\t\t\t\t\t\r\n    //starting_frame.poke(now, 0);\t\t//unlocked_start is preferable 1st loop through\t\t\r\n\tout1 = 1;\t//songstart sent directly (currently disabled outside)\r\n\tif(!imported.peek(0)) {\r\n\t\t//calculate length of backing track if present, setting song length to it\r\n\t\tbars = ceil(backing_ms);\r\n\t\tif(backing_ms) {\r\n\t\t\tstats.poke(bars, 1);\r\n\t\t}\r\n\t\tramp = in2 * bars;  //Jump\r\n\t}\r\n    else {\r\n        starting_frame.poke(now, 0);\t\t//unlocked_start is preferable 1st loop through, EXCEPT when importing (Because of scoring)\r\n    }\r\n} \r\nif(lock) {\r\n\tbars = stats.peek(1);\t//could be turned into a History if not modified externally (which might happen on import)?EDIT: it is now when the song grows\r\n\tloop_end = loop_points.peek(1) + lead;\r\n\tincrement = 1 / (SAMPLERATE / 1000);\r\n\tif(!in3) {\t\t\t\t//if no manual jump has been specified...\r\n\t\tramp += increment;\r\n\t}\r\n\telse {\r\n\t\tramp = in3;\t\t\t//make the jump\r\n\t}\r\n\tcomp = comping.peek(0);\t\r\n\tif(delta(floor(ramp))) {\t//upon entering each bar\r\n\t\t//blog(extendedlog, ramp);\t\t\t\t\t\t\t\t\t//based on whether\r\n\t\tif(ramp >= bars || (ramp >= loop_end && comp) || restart.peek(0)) {\t//comping, base &\r\n\t\t\tblog(extendedlog, bars);\t\t\t\t\t\t\t\t//peak of ramp set\r\n\t\t\tramp_base = 0;\t\t\t\t\t\t\t\t\t\t\t//to endpoints of\r\n\t\t\tif(comp) {\t\t\t\t\t\t\t\t\t\t\t\t//loop or song\r\n\t\t\t\tramp_base = loop_points.peek(0) - lead;\r\n\t\t\t}\r\n\t\t\tramp = ramp_base;\r\n\t\t\tout2 = 1;\r\n\t\t\tnow = stats.peek(0);\t\t\t\t\t\t\t\r\n\t\t\tstarting_frame.poke(now, 0);\r\n\t\t\tif(!loop) {\t\t//loop comes back around for a split second before edge~\r\n\t\t\t\tlock = 0;\t//triggers at control rate. The need for this all\r\n\t\t\t}\t\t\t\t//could hypothetically be eliminated with a full gen~ system\r\n\t\t\trestart.poke(0, 0);\r\n\t\t}\r\n\t}\r\n\trecording = stats.peek(9);\r\n\tif(recording && !comp) {\t\t\t\t//when recording,\r\n\t\trec_ramp += increment;\t//the write head extends separate from the read head\r\n\t}\r\n\telse {\r\n\t\tif(rec_ramp > ramp) {\t//if the record ramp is about to fall back to its base (loop)\r\n\t\t\tout4 = 1;\t\t\t//let the outside world know\r\n\t\t}\r\n\t\trec_ramp = ramp;\t\t//otherwise it stays snapped to it\r\n\t}\t\r\n\tstats.poke(rec_ramp, 5);\r\n\tplay_ramp.poke(ramp, 0);\r\n\tout3 = ramp;\t//this should be the only one used anymore\r\n}\r\nelse {\t//upon import ramp misses initial note(s). A gen~ seq~   would fix*True?\r\n\tout3 = -1;\r\n}\r\nif(delta(lock) == -1) {\r\n\tstats.poke(0, 6); //clickTrack = 0  //Should be obsolete, but initial uses of click (found by analyze()) upon lock still look for stats(6) to be 0\r\n\tstats.poke(-1, 5); //phasor~= 0\r\n}",
					"fontface" : 0,
					"fontname" : "Lucida Console",
					"fontsize" : 12.0,
					"id" : "obj-28",
					"maxclass" : "codebox",
					"numinlets" : 3,
					"numoutlets" : 4,
					"outlettype" : [ "", "", "", "" ],
					"patching_rect" : [ 4.0, 132.25, 1018.33331298828125, 355.75 ]
				}

			}
, 			{
				"box" : 				{
					"id" : "obj-12",
					"maxclass" : "newobj",
					"numinlets" : 1,
					"numoutlets" : 1,
					"outlettype" : [ "" ],
					"patching_rect" : [ 4.0, 78.0, 72.0, 22.0 ],
					"text" : "sampstoms"
				}

			}
, 			{
				"box" : 				{
					"code" : "Buffer stats(\"stats\");\r\nout1 = elapsed;\r\nstats.poke(sampstoms(elapsed));",
					"fontface" : 0,
					"fontname" : "Lucida Console",
					"fontsize" : 12.0,
					"id" : "obj-11",
					"maxclass" : "codebox",
					"numinlets" : 1,
					"numoutlets" : 1,
					"outlettype" : [ "" ],
					"patching_rect" : [ 4.0, 2.0, 570.0, 70.0 ]
				}

			}
, 			{
				"box" : 				{
					"id" : "obj-2",
					"maxclass" : "newobj",
					"numinlets" : 0,
					"numoutlets" : 1,
					"outlettype" : [ "" ],
					"patching_rect" : [ 210.0, 95.0, 30.0, 22.0 ],
					"text" : "in 1"
				}

			}
, 			{
				"box" : 				{
					"id" : "obj-4",
					"maxclass" : "newobj",
					"numinlets" : 1,
					"numoutlets" : 0,
					"patching_rect" : [ 4.0, 100.25, 37.0, 22.0 ],
					"text" : "out 1"
				}

			}
 ],
		"lines" : [ 			{
				"patchline" : 				{
					"destination" : [ "obj-12", 0 ],
					"source" : [ "obj-11", 0 ]
				}

			}
, 			{
				"patchline" : 				{
					"destination" : [ "obj-4", 0 ],
					"source" : [ "obj-12", 0 ]
				}

			}
, 			{
				"patchline" : 				{
					"destination" : [ "obj-28", 2 ],
					"source" : [ "obj-19", 0 ]
				}

			}
, 			{
				"patchline" : 				{
					"destination" : [ "obj-28", 0 ],
					"source" : [ "obj-2", 0 ]
				}

			}
, 			{
				"patchline" : 				{
					"destination" : [ "obj-28", 1 ],
					"source" : [ "obj-24", 0 ]
				}

			}
, 			{
				"patchline" : 				{
					"destination" : [ "obj-30", 0 ],
					"source" : [ "obj-28", 1 ]
				}

			}
, 			{
				"patchline" : 				{
					"destination" : [ "obj-55", 0 ],
					"source" : [ "obj-28", 2 ]
				}

			}
, 			{
				"patchline" : 				{
					"destination" : [ "obj-6", 0 ],
					"source" : [ "obj-28", 0 ]
				}

			}
, 			{
				"patchline" : 				{
					"destination" : [ "obj-7", 0 ],
					"source" : [ "obj-28", 3 ]
				}

			}
 ],
		"editing_bgcolor" : [ 0.9, 0.9, 0.9, 1.0 ]
	}

}
