{
	"patcher" : 	{
		"fileversion" : 1,
		"appversion" : 		{
			"major" : 7,
			"minor" : 3,
			"revision" : 4,
			"architecture" : "x64",
			"modernui" : 1
		}
,
		"rect" : [ 42.0, 116.0, 800.0, 586.0 ],
		"editing_bgcolor" : [ 0.9, 0.9, 0.9, 1.0 ],
		"bglocked" : 0,
		"openinpresentation" : 0,
		"default_fontsize" : 12.0,
		"default_fontface" : 0,
		"default_fontname" : "Arial",
		"gridonopen" : 1,
		"gridsize" : [ 15.0, 15.0 ],
		"gridsnaponopen" : 1,
		"objectsnaponopen" : 1,
		"statusbarvisible" : 2,
		"toolbarvisible" : 1,
		"lefttoolbarpinned" : 0,
		"toptoolbarpinned" : 0,
		"righttoolbarpinned" : 0,
		"bottomtoolbarpinned" : 0,
		"toolbars_unpinned_last_save" : 0,
		"tallnewobj" : 0,
		"boxanimatetime" : 200,
		"enablehscroll" : 1,
		"enablevscroll" : 1,
		"devicewidth" : 0.0,
		"description" : "",
		"digest" : "",
		"tags" : "",
		"style" : "",
		"subpatcher_template" : "",
		"boxes" : [ 			{
				"box" : 				{
					"id" : "obj-5",
					"maxclass" : "newobj",
					"numinlets" : 0,
					"numoutlets" : 2,
					"outlettype" : [ "", "" ],
					"patching_rect" : [ 188.0, 494.0, 84.0, 22.0 ],
					"style" : "",
					"text" : "buffer clicklog"
				}

			}
, 			{
				"box" : 				{
					"id" : "obj-3",
					"maxclass" : "newobj",
					"numinlets" : 0,
					"numoutlets" : 2,
					"outlettype" : [ "", "" ],
					"patching_rect" : [ 203.0, 518.0, 113.0, 22.0 ],
					"style" : "",
					"text" : "buffer incrementlog"
				}

			}
, 			{
				"box" : 				{
					"id" : "obj-1",
					"maxclass" : "newobj",
					"numinlets" : 0,
					"numoutlets" : 2,
					"outlettype" : [ "", "" ],
					"patching_rect" : [ 305.0, 518.0, 110.0, 22.0 ],
					"style" : "",
					"text" : "buffer extendedlog"
				}

			}
, 			{
				"box" : 				{
					"id" : "obj-34",
					"maxclass" : "newobj",
					"numinlets" : 0,
					"numoutlets" : 2,
					"outlettype" : [ "", "" ],
					"patching_rect" : [ 305.0, 491.0, 96.0, 22.0 ],
					"style" : "",
					"text" : "buffer steadylog"
				}

			}
, 			{
				"box" : 				{
					"id" : "obj-19",
					"maxclass" : "newobj",
					"numinlets" : 0,
					"numoutlets" : 1,
					"outlettype" : [ "" ],
					"patching_rect" : [ 557.333374, 97.0, 30.0, 22.0 ],
					"style" : "",
					"text" : "in 3"
				}

			}
, 			{
				"box" : 				{
					"id" : "obj-32",
					"maxclass" : "comment",
					"numinlets" : 1,
					"numoutlets" : 0,
					"patching_rect" : [ 460.5, 518.0, 57.0, 20.0 ],
					"style" : "",
					"text" : "songEnd"
				}

			}
, 			{
				"box" : 				{
					"id" : "obj-30",
					"maxclass" : "newobj",
					"numinlets" : 1,
					"numoutlets" : 0,
					"patching_rect" : [ 470.5, 491.0, 37.0, 22.0 ],
					"style" : "",
					"text" : "out 4"
				}

			}
, 			{
				"box" : 				{
					"id" : "obj-45",
					"maxclass" : "comment",
					"numinlets" : 1,
					"numoutlets" : 0,
					"patching_rect" : [ 700.0, 518.0, 53.0, 20.0 ],
					"style" : "",
					"text" : "phasor~"
				}

			}
, 			{
				"box" : 				{
					"id" : "obj-55",
					"maxclass" : "newobj",
					"numinlets" : 1,
					"numoutlets" : 0,
					"patching_rect" : [ 700.0, 491.0, 37.0, 22.0 ],
					"style" : "",
					"text" : "out 6"
				}

			}
, 			{
				"box" : 				{
					"id" : "obj-24",
					"maxclass" : "newobj",
					"numinlets" : 0,
					"numoutlets" : 1,
					"outlettype" : [ "" ],
					"patching_rect" : [ 731.0, 97.0, 30.0, 22.0 ],
					"style" : "",
					"text" : "in 2"
				}

			}
, 			{
				"box" : 				{
					"code" : "require(\"log\");\r\n\r\nBuffer stats(\"stats\");\r\nBuffer imported(\"imported\");\r\nBuffer pcf(\"pcf\");\r\nBuffer backing_lock_beat(\"backing_lock_beat\");\r\nBuffer play_ramp(\"play_ramp\");\r\nParam tolerance(9);\r\nParam wake(8000);\r\nParam backing_ms(0);\r\nParam loop(0);\r\n//Param lock(0);\r\nHistory base(1);\r\nHistory ramp(1);\r\nHistory rec_ramp(1);\r\nHistory extended(0);\r\nHistory saw(0);\r\nHistory bar(1);\r\nHistory check(0);\r\nHistory token(0);\r\nlock = stats.peek(10);\r\n\r\n//Upon lock, start the ramp with a jump accounting for the latency of the UDP\r\n//round-trip to the Python script. Not necessary when importing because the ramp\r\n//starts up by default\r\nif(change(lock) == 1) {\t//not sure why but this can't be inside if(lock)\r\n\tif(!imported.peek(0)) {\r\n\t\tclick = stats.peek(6) * stats.peek(7);\t//once locked, (6) won't change. could avoid peeking\r\n\t\t//calculate length of backing track if present, setting song length to it\r\n\t\tbars = ceil(backing_ms / click);\r\n\t\tstats.poke(bars, 1);\r\n\t\tbacking_progression = in2 * bars;\r\n\t\t//backing_progression is already moving even if ramp is not so it can\r\n\t\t//simply be what jump is set to (the rest of the following equation\r\n\t\t//will be zero if there is a backing track). Likewise, backing_progression\r\n\t\t//will be zero otherwise and all that is calculated is the latency in\r\n\t\t//terms of bars\r\n\t\tjump = (stats.peek(0) - pcf.peek(0)) / click + backing_progression;\r\n\t\tbacking_lock_beat.poke(backing_progression + 1, 0);\r\n\t\t//blog(incrementlog, stats.peek(0) - pcf.peek(0));\r\n\t\t//blog(incrementlog, click);\r\n\t\tblog(incrementlog, backing_ms);\r\n\t\tblog(incrementlog, jump);\r\n\t\tbar = floor(jump) + 1;\r\n\t\tsaw = jump % 1;\r\n\t}\r\n}\r\nif(delta(lock)) {\r\n\tblog(clicklog, delta(lock));\r\n}\r\nif(lock) {\r\n\tbars = stats.peek(1);\t//could be turned into a History if not modified externally (which might happen on import)?EDIT: it is now when the song grows\r\n\tclick = stats.peek(6) * stats.peek(7);\t//once locked, (6) won't change. could avoid peeking\r\n\tincrement = (1 / (SAMPLERATE * (click / 1000)));\r\n\tif(ramp > 1023.999 && ramp < 1024.001 && delta(ramp))  {\r\n\t\tblog(incrementlog, ramp);\t//logs ramp just before increment\r\n\t}\r\n\tsaw += increment; \t//verified on sample in question ramp does not increment\t\t\t\t\t\t\t\t\t\t\t\t\t//doesnt' account for <-o in first bar.\r\n\tif(saw >= 1) {\t//dividing ramp into saw and bar fixed inexplicable glitch\r\n\t\tsaw = 0;\t//where it would stall out at bar 1024\r\n\t\tbar += 1;\r\n\t}\r\n\tramp = saw + bar;\r\n\tif(ramp > 1023.999 && ramp < 1024.001 && delta(ramp))  {\r\n\t\tblog(incrementlog, ramp);\t//logs ramp just after increment\r\n\t}\r\n\tif(delta(increment)) {\t//verifies the increment did not change (say, to 0)\r\n\t\tblog(incrementlog, increment);\r\n\t}\r\n\tif(delta(floor(ramp))) {\r\n\t\t//blog(extendedlog, ramp);\r\n\t\tif(ramp >= bars + 1) {\r\n\t\t\tblog(extendedlog, bars);\r\n\t\t\t//recording = stats.peek(9);\r\n\t\t\t//if(!recording) {\r\n\t\t\t\tramp = 1 - (sampstoms(vectorsize * 2) / click);\t//start ramp a vector early so cues at 1 always trigger\r\n\t\t\t\tbar = 1;\r\n\t\t\t\t//blog(incrementlog, saw);\r\n\t\t\t\textended = 0;\r\n\t\t\t\tblog(extendedlog, 0);\r\n\t\t\t\tout2 = 1;\r\n\t\t\t\tif(!loop) {\t\t//loop comes back around for a split second before edge~\r\n\t\t\t\t\tlock = 0;\t//triggers at control rate. The need for this all\r\n\t\t\t\t}\t\t\t\t//could hypothetically be eliminated with a full gen~ system\r\n\t\t\t//}\r\n\t\t}\r\n\t}\r\n\trecording = stats.peek(9);\r\n\tif(recording) {\t\t\t\t//when recording,\r\n\t\trec_ramp += increment;\t//the write head extends separate from the read head\r\n\t}\r\n\telse {\r\n\t\trec_ramp = ramp;\t\t//otherwise it stays snapped to it\r\n\t}\r\n\tstats.poke(rec_ramp, 5);\r\n\tplay_ramp.poke(ramp, 0);\r\n\tout3 = ramp;\r\n}\r\nelse {\t//upon import ramp misses initial note(s). A gen~ seq~   would fix\r\n\tout3 = 1;\t//short of that, tried changing this to 0, 2 and .99\r\n}\r\nif(delta(lock) == -1) {\r\n\tstats.poke(1, 1); //bars = 1\r\n\tstats.poke(0, 6); //clickTrack = 0\r\n\tstats.poke(1, 5); //phasor~ = 1\r\n\tstats.poke(0, 4); // steady = 0\r\n\tblog(steadylog, 0.0001);\r\n\t//blog(incrementlog, saw);\r\n\t//blog(incrementlog, bar);\r\n}",
					"fontface" : 0,
					"fontname" : "Arial",
					"fontsize" : 12.0,
					"id" : "obj-28",
					"maxclass" : "codebox",
					"numinlets" : 2,
					"numoutlets" : 3,
					"outlettype" : [ "", "", "" ],
					"patching_rect" : [ 210.0, 119.0, 540.0, 361.0 ],
					"style" : ""
				}

			}
, 			{
				"box" : 				{
					"id" : "obj-12",
					"maxclass" : "newobj",
					"numinlets" : 1,
					"numoutlets" : 1,
					"outlettype" : [ "" ],
					"patching_rect" : [ 4.0, 78.0, 72.0, 22.0 ],
					"style" : "",
					"text" : "sampstoms"
				}

			}
, 			{
				"box" : 				{
					"code" : "out1 = elapsed;\r\nstats.poke(elapsed / (SAMPLERATE / 1000), 0);\t//most effiecient way to write this?",
					"fontface" : 0,
					"fontname" : "Arial",
					"fontsize" : 12.0,
					"id" : "obj-11",
					"maxclass" : "codebox",
					"numinlets" : 1,
					"numoutlets" : 1,
					"outlettype" : [ "" ],
					"patching_rect" : [ 4.0, 2.0, 570.0, 70.0 ],
					"style" : ""
				}

			}
, 			{
				"box" : 				{
					"id" : "obj-2",
					"maxclass" : "newobj",
					"numinlets" : 0,
					"numoutlets" : 1,
					"outlettype" : [ "" ],
					"patching_rect" : [ 210.0, 95.0, 30.0, 22.0 ],
					"style" : "",
					"text" : "in 1"
				}

			}
, 			{
				"box" : 				{
					"id" : "obj-4",
					"maxclass" : "newobj",
					"numinlets" : 1,
					"numoutlets" : 0,
					"patching_rect" : [ 4.0, 100.25, 37.0, 22.0 ],
					"style" : "",
					"text" : "out 1"
				}

			}
 ],
		"lines" : [ 			{
				"patchline" : 				{
					"destination" : [ "obj-12", 0 ],
					"source" : [ "obj-11", 0 ]
				}

			}
, 			{
				"patchline" : 				{
					"destination" : [ "obj-4", 0 ],
					"source" : [ "obj-12", 0 ]
				}

			}
, 			{
				"patchline" : 				{
					"destination" : [ "obj-28", 0 ],
					"source" : [ "obj-2", 0 ]
				}

			}
, 			{
				"patchline" : 				{
					"destination" : [ "obj-28", 1 ],
					"source" : [ "obj-24", 0 ]
				}

			}
, 			{
				"patchline" : 				{
					"destination" : [ "obj-30", 0 ],
					"source" : [ "obj-28", 1 ]
				}

			}
, 			{
				"patchline" : 				{
					"destination" : [ "obj-55", 0 ],
					"source" : [ "obj-28", 2 ]
				}

			}
 ]
	}

}
