{
	"patcher" : 	{
		"fileversion" : 1,
		"appversion" : 		{
			"major" : 8,
			"minor" : 0,
			"revision" : 3,
			"architecture" : "x64",
			"modernui" : 1
		}
,
		"classnamespace" : "dsp.gen",
		"rect" : [ 42.0, 113.0, 753.0, 577.0 ],
		"bglocked" : 0,
		"openinpresentation" : 0,
		"default_fontsize" : 10.0,
		"default_fontface" : 0,
		"default_fontname" : "Arial",
		"gridonopen" : 2,
		"gridsize" : [ 10.0, 10.0 ],
		"gridsnaponopen" : 2,
		"objectsnaponopen" : 1,
		"statusbarvisible" : 2,
		"toolbarvisible" : 1,
		"lefttoolbarpinned" : 0,
		"toptoolbarpinned" : 0,
		"righttoolbarpinned" : 0,
		"bottomtoolbarpinned" : 0,
		"toolbars_unpinned_last_save" : 0,
		"tallnewobj" : 0,
		"boxanimatetime" : 200,
		"enablehscroll" : 1,
		"enablevscroll" : 1,
		"devicewidth" : 0.0,
		"description" : "",
		"digest" : "",
		"tags" : "",
		"style" : "",
		"subpatcher_template" : "To the Sun",
		"boxes" : [ 			{
				"box" : 				{
					"id" : "obj-11",
					"maxclass" : "newobj",
					"numinlets" : 1,
					"numoutlets" : 0,
					"patching_rect" : [ 651.0, 540.0, 31.0, 20.0 ],
					"text" : "out 6"
				}

			}
, 			{
				"box" : 				{
					"id" : "obj-10",
					"maxclass" : "newobj",
					"numinlets" : 1,
					"numoutlets" : 0,
					"patching_rect" : [ 520.79998779296875, 540.0, 31.0, 20.0 ],
					"text" : "out 5"
				}

			}
, 			{
				"box" : 				{
					"id" : "obj-9",
					"maxclass" : "newobj",
					"numinlets" : 1,
					"numoutlets" : 0,
					"patching_rect" : [ 390.600006103515625, 540.0, 31.0, 20.0 ],
					"text" : "out 4"
				}

			}
, 			{
				"box" : 				{
					"id" : "obj-8",
					"maxclass" : "newobj",
					"numinlets" : 1,
					"numoutlets" : 0,
					"patching_rect" : [ 260.399993896484375, 540.0, 31.0, 20.0 ],
					"text" : "out 3"
				}

			}
, 			{
				"box" : 				{
					"id" : "obj-7",
					"maxclass" : "newobj",
					"numinlets" : 1,
					"numoutlets" : 0,
					"patching_rect" : [ 130.199996948242188, 540.0, 31.0, 20.0 ],
					"text" : "out 2"
				}

			}
, 			{
				"box" : 				{
					"id" : "obj-6",
					"maxclass" : "newobj",
					"numinlets" : 0,
					"numoutlets" : 1,
					"outlettype" : [ "" ],
					"patching_rect" : [ 651.0, 0.0, 25.0, 20.0 ],
					"text" : "in 4"
				}

			}
, 			{
				"box" : 				{
					"id" : "obj-5",
					"maxclass" : "newobj",
					"numinlets" : 0,
					"numoutlets" : 1,
					"outlettype" : [ "" ],
					"patching_rect" : [ 434.0, 0.0, 25.0, 20.0 ],
					"text" : "in 3"
				}

			}
, 			{
				"box" : 				{
					"id" : "obj-1",
					"maxclass" : "newobj",
					"numinlets" : 0,
					"numoutlets" : 1,
					"outlettype" : [ "" ],
					"patching_rect" : [ 0.0, 0.0, 25.0, 20.0 ],
					"text" : "in 1"
				}

			}
, 			{
				"box" : 				{
					"id" : "obj-2",
					"maxclass" : "newobj",
					"numinlets" : 0,
					"numoutlets" : 1,
					"outlettype" : [ "" ],
					"patching_rect" : [ 217.0, 0.0, 25.0, 20.0 ],
					"text" : "in 2"
				}

			}
, 			{
				"box" : 				{
					"id" : "obj-4",
					"maxclass" : "newobj",
					"numinlets" : 1,
					"numoutlets" : 0,
					"patching_rect" : [ 0.0, 540.0, 31.0, 20.0 ],
					"text" : "out 1"
				}

			}
, 			{
				"box" : 				{
					"code" : "Buffer intervals(\"intervals\");\r\nBuffer recitation_intervals(\"recitation_intervals\");\r\nBuffer prior_timestamps(\"prior_timestamps\");\r\nBuffer rhythm(\"rhythm\");\r\nBuffer tempo(\"tempo\");\r\nBuffer salient(\"salient\");\r\nBuffer stats(\"stats\");\r\nBuffer recording(\"recording\");\r\nBuffer mode(\"mode\");\r\nBuffer stable(\"stable\");\r\nBuffer unstable(\"unstable\");\r\nBuffer steady(\"steady\");\r\nParam tolerance(9);\r\nParam wake(8000);\r\nParam backing(0);\r\natom = tolerance * 2;\r\nrange = 0;\r\ntimestamp = in1;\r\npitch = in2;\r\nvelocity = in3;\r\nchannel = in4;\r\nif(channel < 0) {\t\t\t\t\t\t//recitation takes slots 17-32\r\n\tchannel = abs(channel) + 16;\r\n}\r\nnow = stats.peek(0);\r\nlock = stats.peek(10);\t//.peek() alone in if() fails to compile. Must resolve to expression\r\naggregate = 0;\r\ninterval = timestamp - prior_timestamps.peek(channel);\r\ndistinct = interval > atom;\r\n//if(distinct) {\r\n\tintervals_prior = 0;\r\n    prior_interval = intervals.peek(0, channel);\r\n    while(prior_interval) {\t//counts intervals, aggregating and tolerating them\r\n        aggregate += prior_interval;\r\n        if(aggregate <= wake) {\r\n            center = now + aggregate;\r\n            for(sample = center - tolerance; sample <= center + tolerance; sample += 1) {\r\n                wrapped = sample % dim(rhythm);\r\n                incremented = rhythm.peek(wrapped) + 1;\r\n                rhythm.poke(incremented, wrapped);\r\n                if(incremented > range) {\r\n                    range = incremented;\r\n                }\r\n            }\r\n        }\r\n        else {\r\n            rhythm.poke(0, intervals_prior, channel);\r\n        }\r\n        intervals_prior += 1;\r\n        prior_interval = intervals.peek(intervals_prior, channel);\r\n    }\r\n    while(intervals_prior >= 0) { //counts back down, moving intervals 1 index up\r\n        intervals_prior -= 1;\r\n        prior_interval = intervals.peek(intervals_prior, channel);\r\n        intervals.poke(prior_interval, intervals_prior + 1, channel);\r\n    }\r\n    intervals.poke(interval, 0, channel);\r\n    prior_timestamps.poke(timestamp, channel);\r\n//}\r\nout1 = rhythm.peek(timestamp % dim(rhythm));",
					"fontface" : 0,
					"fontname" : "Lucida Console",
					"fontsize" : 10.0,
					"id" : "obj-3",
					"maxclass" : "codebox",
					"numinlets" : 4,
					"numoutlets" : 1,
					"outlettype" : [ "" ],
					"patching_rect" : [ 0.0, 20.0, 670.0, 520.0 ]
				}

			}
 ],
		"lines" : [ 			{
				"patchline" : 				{
					"destination" : [ "obj-3", 0 ],
					"source" : [ "obj-1", 0 ]
				}

			}
, 			{
				"patchline" : 				{
					"destination" : [ "obj-3", 1 ],
					"source" : [ "obj-2", 0 ]
				}

			}
, 			{
				"patchline" : 				{
					"destination" : [ "obj-4", 0 ],
					"source" : [ "obj-3", 0 ]
				}

			}
, 			{
				"patchline" : 				{
					"destination" : [ "obj-3", 2 ],
					"source" : [ "obj-5", 0 ]
				}

			}
, 			{
				"patchline" : 				{
					"destination" : [ "obj-3", 3 ],
					"source" : [ "obj-6", 0 ]
				}

			}
 ],
		"bgfillcolor_type" : "gradient",
		"bgfillcolor_color1" : [ 0.376471, 0.384314, 0.4, 1.0 ],
		"bgfillcolor_color2" : [ 0.290196, 0.309804, 0.301961, 1.0 ],
		"bgfillcolor_color" : [ 0.290196, 0.309804, 0.301961, 1.0 ]
	}

}
